<svg xmlns="http://www.w3.org/2000/svg" xmlns:xlink="http://www.w3.org/1999/xlink" width="500" zoomAndPan="magnify" viewBox="0 0 375 374.999991" height="500" preserveAspectRatio="xMidYMid meet" version="1.0"><defs><filter x="0%" y="0%" width="100%" height="100%" id="94eaa21949"><feColorMatrix values="0 0 0 0 1 0 0 0 0 1 0 0 0 0 1 0 0 0 1 0" color-interpolation-filters="sRGB"/></filter><mask id="8dada82901"><g filter="url(#94eaa21949)"><rect x="-37.5" width="450" fill="#000000" y="-37.499999" height="449.999989" fill-opacity="0.9"/></g></mask><clipPath id="5b19360153"><path d="M 0 0 L 375 0 L 375 375 L 0 375 Z M 0 0 " clip-rule="nonzero"/></clipPath><clipPath id="fceb91267f"><path d="M 187.5 0 C 83.945312 0 0 83.945312 0 187.5 C 0 291.054688 83.945312 375 187.5 375 C 291.054688 375 375 291.054688 375 187.5 C 375 83.945312 291.054688 0 187.5 0 Z M 187.5 0 " clip-rule="nonzero"/></clipPath><clipPath id="4ed999971e"><path d="M 0 0 L 375 0 L 375 375 L 0 375 Z M 0 0 " clip-rule="nonzero"/></clipPath><clipPath id="357688960e"><path d="M 187.5 0 C 83.945312 0 0 83.945312 0 187.5 C 0 291.054688 83.945312 375 187.5 375 C 291.054688 375 375 291.054688 375 187.5 C 375 83.945312 291.054688 0 187.5 0 Z M 187.5 0 " clip-rule="nonzero"/></clipPath><clipPath id="6084afee89"><rect x="0" width="375" y="0" height="375"/></clipPath><clipPath id="503589cd64"><path d="M 0 0 L 374.96875 0 L 374.96875 374.96875 L 0 374.96875 Z M 0 0 " clip-rule="nonzero"/></clipPath><clipPath id="8eb9489297"><path d="M 187.484375 0 C 83.941406 0 0 83.941406 0 187.484375 C 0 291.03125 83.941406 374.96875 187.484375 374.96875 C 291.03125 374.96875 374.96875 291.03125 374.96875 187.484375 C 374.96875 83.941406 291.03125 0 187.484375 0 Z M 187.484375 0 " clip-rule="nonzero"/></clipPath><clipPath id="65e0674f4c"><path d="M 196 148 L 375 148 L 375 290 L 196 290 Z M 196 148 " clip-rule="nonzero"/></clipPath><clipPath id="845dfb9e30"><rect x="0" width="375" y="0" height="375"/></clipPath><clipPath id="a3df13e1f7"><rect x="0" width="375" y="0" height="375"/></clipPath></defs><g mask="url(#8dada82901)"><g transform="matrix(1, 0, 0, 1, 0, 0)"><g clip-path="url(#a3df13e1f7)"><g transform="matrix(1, 0, 0, 1, 0, 0)"><g clip-path="url(#845dfb9e30)"><g clip-path="url(#5b19360153)"><g clip-path="url(#fceb91267f)"><g transform="matrix(1, 0, 0, 1, 0, 0)"><g clip-path="url(#6084afee89)"><g clip-path="url(#4ed999971e)"><g clip-path="url(#357688960e)"><rect x="-201.3" width="777.6" fill="#112a2b" height="777.599981" y="-201.299995" fill-opacity="1"/></g></g></g></g></g></g><g clip-path="url(#503589cd64)"><g clip-path="url(#8eb9489297)"><path stroke-linecap="butt" transform="matrix(2.292737, 0, 0, 2.292737, 0.0000045, -0.000000000000065163)" fill="none" stroke-linejoin="miter" d="M 81.773181 0.000000000000028422 C 36.611881 0.000000000000028422 -0.00000196272 36.611883 -0.00000196272 81.773183 C -0.00000196272 126.936187 36.611881 163.546366 81.773181 163.546366 C 126.936185 163.546366 163.546364 126.936187 163.546364 81.773183 C 163.546364 36.611883 126.936185 0.000000000000028422 81.773181 0.000000000000028422 Z M 81.773181 0.000000000000028422 " stroke="#193f32" stroke-width="1.96272" stroke-opacity="1" stroke-miterlimit="4"/></g></g><path stroke-linecap="round" transform="matrix(2.292737, 0, 0, 2.292737, 37.364911, 205.357355)" fill="none" stroke-linejoin="miter" d="M 2.500394 2.500282 L 32.854403 2.500282 " stroke="#ffffff" stroke-width="5" stroke-opacity="1" stroke-miterlimit="4"/><path stroke-linecap="round" transform="matrix(0.935189, -2.093338, 2.093338, 0.935189, 108.880325, 211.005411)" fill="none" stroke-linejoin="miter" d="M 2.500528 2.500473 L 42.300835 2.49949 " stroke="#ffffff" stroke-width="5" stroke-opacity="1" stroke-miterlimit="4"/><path stroke-linecap="round" transform="matrix(-0.150376, -2.2878, 2.2878, -0.150376, 159.18868, 255.508284)" fill="none" stroke-linejoin="miter" d="M 2.499498 2.499534 L 56.763223 2.499443 " stroke="#ffffff" stroke-width="5" stroke-opacity="1" stroke-miterlimit="4"/><path stroke-linecap="round" transform="matrix(1.05015, -2.038094, 2.038094, 1.05015, 159.823398, 252.512415)" fill="none" stroke-linejoin="miter" d="M 2.499632 2.49968 L 41.58777 2.500847 " stroke="#ffffff" stroke-width="5" stroke-opacity="1" stroke-miterlimit="4"/><path stroke-linecap="round" transform="matrix(-0.388323, -2.259612, 2.259612, -0.388323, 217.934083, 238.225283)" fill="none" stroke-linejoin="miter" d="M 2.499918 2.500417 L 29.350424 2.500806 " stroke="#ffffff" stroke-width="5" stroke-opacity="1" stroke-miterlimit="4"/><path stroke-linecap="round" transform="matrix(0.587094, -2.216294, 2.216294, 0.587094, 218.039345, 235.778656)" fill="none" stroke-linejoin="miter" d="M 2.499315 2.499757 L 36.498252 2.499919 " stroke="#ffffff" stroke-width="5" stroke-opacity="1" stroke-miterlimit="4"/><path stroke-linecap="round" transform="matrix(-0.343222, -2.266901, 2.266901, -0.343222, 252.573122, 229.374331)" fill="none" stroke-linejoin="miter" d="M 2.500558 2.500301 L 31.773707 2.500435 " stroke="#ffffff" stroke-width="5" stroke-opacity="1" stroke-miterlimit="4"/><g clip-path="url(#65e0674f4c)"><path stroke-linecap="round" transform="matrix(2.269817, -0.323377, 0.323377, 2.269817, 254.654549, 220.006406)" fill="none" stroke-linejoin="miter" d="M 2.499735 2.49934 L 37.836007 2.499847 " stroke="#ffffff" stroke-width="5" stroke-opacity="1" stroke-miterlimit="4"/></g></g></g></g></g></g></svg>