<svg xmlns="http://www.w3.org/2000/svg" xmlns:xlink="http://www.w3.org/1999/xlink" width="500" zoomAndPan="magnify" viewBox="0 0 375 374.999991" height="500" preserveAspectRatio="xMidYMid meet" version="1.0"><path fill="#000000" d="M 132.8125 328.09375 L 132.8125 234.320312 C 132.8125 221.039062 144.9375 210.9375 159.375 210.9375 L 215.625 210.9375 C 230 210.9375 242.1875 221.0625 242.1875 234.320312 L 242.1875 328.09375 L 264.125 328.09375 C 286.5625 328.09375 304.6875 310.53125 304.6875 289.007812 L 304.6875 151.671875 L 204.039062 51.023438 C 203.496094 50.480469 202.929688 49.964844 202.339844 49.480469 C 201.746094 48.992188 201.132812 48.535156 200.496094 48.109375 C 199.859375 47.683594 199.203125 47.289062 198.527344 46.929688 C 197.851562 46.566406 197.160156 46.238281 196.453125 45.945312 C 195.746094 45.652344 195.023438 45.394531 194.292969 45.171875 C 193.558594 44.949219 192.816406 44.761719 192.0625 44.613281 C 191.3125 44.464844 190.554688 44.351562 189.792969 44.277344 C 189.03125 44.199219 188.265625 44.164062 187.5 44.164062 C 186.734375 44.164062 185.96875 44.199219 185.207031 44.277344 C 184.445312 44.351562 183.6875 44.464844 182.9375 44.613281 C 182.183594 44.761719 181.441406 44.949219 180.707031 45.171875 C 179.976562 45.394531 179.253906 45.652344 178.546875 45.945312 C 177.839844 46.238281 177.148438 46.566406 176.472656 46.929688 C 175.796875 47.289062 175.140625 47.683594 174.503906 48.109375 C 173.867188 48.535156 173.253906 48.992188 172.660156 49.480469 C 172.070312 49.964844 171.503906 50.480469 170.960938 51.023438 L 70.3125 151.671875 L 70.3125 289.007812 C 70.3125 310.570312 88.398438 328.09375 110.875 328.09375 Z M 148.4375 328.09375 L 226.5625 328.09375 L 226.5625 234.320312 C 226.5625 230.398438 221.953125 226.5625 215.625 226.5625 L 159.375 226.5625 C 153 226.5625 148.4375 230.367188 148.4375 234.320312 Z M 320.3125 167.296875 L 320.3125 289.007812 C 320.3125 319.273438 295.085938 343.71875 264.125 343.71875 L 110.875 343.71875 C 79.882812 343.71875 54.6875 319.3125 54.6875 289.007812 L 54.6875 167.296875 L 44.585938 177.398438 C 44.226562 177.773438 43.832031 178.105469 43.40625 178.398438 C 42.976562 178.695312 42.527344 178.945312 42.050781 179.148438 C 41.574219 179.355469 41.082031 179.507812 40.574219 179.617188 C 40.066406 179.722656 39.554688 179.777344 39.035156 179.78125 C 38.515625 179.789062 38 179.742188 37.492188 179.644531 C 36.984375 179.546875 36.488281 179.398438 36.007812 179.203125 C 35.527344 179.003906 35.070312 178.761719 34.640625 178.476562 C 34.207031 178.1875 33.808594 177.863281 33.441406 177.496094 C 33.074219 177.128906 32.75 176.730469 32.460938 176.296875 C 32.175781 175.863281 31.933594 175.410156 31.734375 174.929688 C 31.539062 174.449219 31.390625 173.953125 31.292969 173.445312 C 31.195312 172.9375 31.148438 172.421875 31.15625 171.902344 C 31.160156 171.382812 31.214844 170.871094 31.320312 170.363281 C 31.429688 169.855469 31.582031 169.363281 31.789062 168.886719 C 31.992188 168.410156 32.242188 167.960938 32.539062 167.53125 C 32.832031 167.105469 33.164062 166.710938 33.539062 166.351562 L 159.914062 39.976562 C 160.816406 39.074219 161.761719 38.214844 162.75 37.402344 C 163.738281 36.59375 164.761719 35.832031 165.824219 35.121094 C 166.886719 34.410156 167.980469 33.753906 169.109375 33.152344 C 170.234375 32.550781 171.386719 32.003906 172.570312 31.515625 C 173.75 31.023438 174.949219 30.59375 176.175781 30.222656 C 177.398438 29.851562 178.632812 29.542969 179.886719 29.292969 C 181.140625 29.042969 182.402344 28.855469 183.675781 28.730469 C 184.949219 28.605469 186.222656 28.542969 187.5 28.542969 C 188.777344 28.542969 190.050781 28.605469 191.324219 28.730469 C 192.597656 28.855469 193.859375 29.042969 195.113281 29.292969 C 196.363281 29.542969 197.601562 29.851562 198.824219 30.222656 C 200.050781 30.59375 201.25 31.023438 202.429688 31.515625 C 203.613281 32.003906 204.765625 32.550781 205.890625 33.152344 C 207.019531 33.753906 208.113281 34.410156 209.175781 35.121094 C 210.238281 35.832031 211.261719 36.59375 212.25 37.402344 C 213.238281 38.214844 214.183594 39.074219 215.085938 39.976562 L 341.460938 166.351562 C 341.8125 166.714844 342.128906 167.113281 342.402344 167.539062 C 342.679688 167.964844 342.910156 168.414062 343.097656 168.882812 C 343.285156 169.355469 343.425781 169.839844 343.519531 170.339844 C 343.613281 170.835938 343.660156 171.339844 343.652344 171.847656 C 343.648438 172.355469 343.597656 172.855469 343.492188 173.351562 C 343.390625 173.851562 343.242188 174.332031 343.046875 174.800781 C 342.851562 175.269531 342.609375 175.710938 342.328125 176.132812 C 342.046875 176.554688 341.726562 176.945312 341.367188 177.304688 C 341.007812 177.664062 340.617188 177.984375 340.195312 178.265625 C 339.773438 178.546875 339.332031 178.789062 338.863281 178.984375 C 338.394531 179.179688 337.914062 179.328125 337.414062 179.429688 C 336.917969 179.535156 336.417969 179.585938 335.910156 179.589844 C 335.402344 179.597656 334.898438 179.550781 334.402344 179.457031 C 333.902344 179.363281 333.417969 179.222656 332.945312 179.035156 C 332.476562 178.847656 332.027344 178.617188 331.601562 178.339844 C 331.175781 178.066406 330.777344 177.75 330.414062 177.398438 Z M 320.3125 167.296875 " fill-opacity="1" fill-rule="nonzero"/></svg>