<svg xmlns="http://www.w3.org/2000/svg" xmlns:xlink="http://www.w3.org/1999/xlink" width="500" zoomAndPan="magnify" viewBox="0 0 375 374.999991" height="500" preserveAspectRatio="xMidYMid meet" version="1.0"><path fill="#5c5c66" d="M 117.1875 343.75 C 116.675781 343.75 116.167969 343.699219 115.664062 343.601562 C 115.160156 343.5 114.671875 343.351562 114.199219 343.15625 C 113.722656 342.957031 113.273438 342.71875 112.847656 342.433594 C 112.421875 342.148438 112.027344 341.824219 111.664062 341.460938 C 111.300781 341.097656 110.976562 340.703125 110.691406 340.277344 C 110.40625 339.851562 110.164062 339.402344 109.96875 338.925781 C 109.773438 338.453125 109.625 337.964844 109.523438 337.460938 C 109.425781 336.957031 109.375 336.449219 109.375 335.9375 L 109.375 57.921875 L 60.210938 107.085938 C 59.851562 107.449219 59.453125 107.773438 59.027344 108.058594 C 58.601562 108.34375 58.152344 108.585938 57.675781 108.78125 C 57.203125 108.976562 56.714844 109.125 56.210938 109.226562 C 55.707031 109.324219 55.199219 109.375 54.6875 109.375 C 54.175781 109.375 53.667969 109.324219 53.164062 109.226562 C 52.660156 109.125 52.171875 108.976562 51.699219 108.78125 C 51.222656 108.585938 50.773438 108.34375 50.347656 108.058594 C 49.921875 107.773438 49.523438 107.449219 49.164062 107.085938 C 48.800781 106.726562 48.476562 106.328125 48.191406 105.902344 C 47.90625 105.476562 47.664062 105.027344 47.46875 104.550781 C 47.273438 104.078125 47.125 103.589844 47.023438 103.085938 C 46.925781 102.582031 46.875 102.074219 46.875 101.5625 C 46.875 101.050781 46.925781 100.542969 47.023438 100.039062 C 47.125 99.535156 47.273438 99.046875 47.46875 98.574219 C 47.664062 98.097656 47.90625 97.648438 48.191406 97.222656 C 48.476562 96.796875 48.800781 96.398438 49.164062 96.039062 L 111.664062 33.539062 C 112.023438 33.175781 112.421875 32.851562 112.847656 32.566406 C 113.273438 32.28125 113.722656 32.039062 114.199219 31.84375 C 114.671875 31.648438 115.160156 31.5 115.664062 31.398438 C 116.167969 31.296875 116.675781 31.25 117.1875 31.25 C 117.699219 31.25 118.207031 31.296875 118.710938 31.398438 C 119.214844 31.5 119.703125 31.648438 120.175781 31.84375 C 120.652344 32.039062 121.101562 32.28125 121.527344 32.566406 C 121.953125 32.851562 122.351562 33.175781 122.710938 33.539062 L 185.210938 96.039062 C 185.574219 96.398438 185.898438 96.796875 186.183594 97.222656 C 186.46875 97.648438 186.710938 98.097656 186.90625 98.574219 C 187.101562 99.046875 187.25 99.535156 187.351562 100.039062 C 187.449219 100.542969 187.5 101.050781 187.5 101.5625 C 187.5 102.074219 187.449219 102.582031 187.351562 103.085938 C 187.25 103.589844 187.101562 104.078125 186.90625 104.550781 C 186.710938 105.027344 186.46875 105.476562 186.183594 105.902344 C 185.898438 106.328125 185.574219 106.726562 185.210938 107.085938 C 184.851562 107.449219 184.453125 107.773438 184.027344 108.058594 C 183.601562 108.34375 183.152344 108.585938 182.675781 108.78125 C 182.203125 108.976562 181.714844 109.125 181.210938 109.226562 C 180.707031 109.324219 180.199219 109.375 179.6875 109.375 C 179.175781 109.375 178.667969 109.324219 178.164062 109.226562 C 177.660156 109.125 177.171875 108.976562 176.699219 108.78125 C 176.222656 108.585938 175.773438 108.34375 175.347656 108.058594 C 174.921875 107.773438 174.523438 107.449219 174.164062 107.085938 L 125 57.921875 L 125 335.9375 C 125 336.449219 124.949219 336.957031 124.851562 337.460938 C 124.75 337.964844 124.601562 338.453125 124.40625 338.925781 C 124.210938 339.402344 123.96875 339.851562 123.683594 340.277344 C 123.398438 340.703125 123.074219 341.097656 122.710938 341.460938 C 122.347656 341.824219 121.953125 342.148438 121.527344 342.433594 C 121.101562 342.71875 120.652344 342.957031 120.175781 343.15625 C 119.703125 343.351562 119.214844 343.5 118.710938 343.601562 C 118.207031 343.699219 117.699219 343.75 117.1875 343.75 Z M 250 39.0625 L 250 317.078125 L 200.835938 267.914062 C 200.472656 267.550781 200.078125 267.226562 199.652344 266.941406 C 199.226562 266.65625 198.777344 266.414062 198.300781 266.21875 C 197.828125 266.023438 197.339844 265.875 196.835938 265.773438 C 196.332031 265.675781 195.824219 265.625 195.3125 265.625 C 194.800781 265.625 194.292969 265.675781 193.789062 265.773438 C 193.285156 265.875 192.796875 266.023438 192.324219 266.21875 C 191.847656 266.414062 191.398438 266.65625 190.972656 266.941406 C 190.546875 267.226562 190.148438 267.550781 189.789062 267.914062 C 189.425781 268.273438 189.101562 268.671875 188.816406 269.097656 C 188.53125 269.523438 188.289062 269.972656 188.09375 270.449219 C 187.898438 270.921875 187.75 271.410156 187.648438 271.914062 C 187.550781 272.417969 187.5 272.925781 187.5 273.4375 C 187.5 273.949219 187.550781 274.457031 187.648438 274.960938 C 187.75 275.464844 187.898438 275.953125 188.09375 276.425781 C 188.289062 276.902344 188.53125 277.351562 188.816406 277.777344 C 189.101562 278.203125 189.425781 278.601562 189.789062 278.960938 L 252.289062 341.460938 C 252.648438 341.824219 253.046875 342.148438 253.472656 342.433594 C 253.898438 342.71875 254.347656 342.960938 254.824219 343.15625 C 255.296875 343.351562 255.785156 343.5 256.289062 343.601562 C 256.792969 343.703125 257.300781 343.75 257.8125 343.75 C 258.324219 343.75 258.832031 343.703125 259.335938 343.601562 C 259.839844 343.5 260.328125 343.351562 260.800781 343.15625 C 261.277344 342.960938 261.726562 342.71875 262.152344 342.433594 C 262.578125 342.148438 262.976562 341.824219 263.335938 341.460938 L 325.835938 278.960938 C 326.199219 278.597656 326.523438 278.203125 326.808594 277.777344 C 327.09375 277.351562 327.332031 276.902344 327.527344 276.425781 C 327.722656 275.953125 327.871094 275.464844 327.972656 274.960938 C 328.070312 274.460938 328.121094 273.953125 328.121094 273.4375 C 328.121094 272.925781 328.070312 272.417969 327.972656 271.914062 C 327.871094 271.414062 327.722656 270.925781 327.527344 270.449219 C 327.328125 269.976562 327.089844 269.527344 326.804688 269.101562 C 326.519531 268.675781 326.195312 268.28125 325.832031 267.917969 C 325.46875 267.554688 325.074219 267.230469 324.648438 266.945312 C 324.222656 266.660156 323.773438 266.421875 323.300781 266.222656 C 322.824219 266.027344 322.335938 265.878906 321.835938 265.777344 C 321.332031 265.679688 320.824219 265.628906 320.3125 265.628906 C 319.796875 265.628906 319.289062 265.679688 318.789062 265.777344 C 318.285156 265.878906 317.796875 266.027344 317.324219 266.222656 C 316.847656 266.417969 316.398438 266.65625 315.972656 266.941406 C 315.546875 267.226562 315.152344 267.550781 314.789062 267.914062 L 265.625 317.078125 L 265.625 39.0625 C 265.625 38.550781 265.574219 38.042969 265.476562 37.539062 C 265.375 37.035156 265.226562 36.546875 265.03125 36.074219 C 264.832031 35.597656 264.59375 35.148438 264.308594 34.722656 C 264.023438 34.296875 263.699219 33.902344 263.335938 33.539062 C 262.972656 33.175781 262.578125 32.851562 262.152344 32.566406 C 261.726562 32.28125 261.277344 32.039062 260.800781 31.84375 C 260.328125 31.648438 259.839844 31.5 259.335938 31.398438 C 258.832031 31.300781 258.324219 31.25 257.8125 31.25 C 257.300781 31.25 256.792969 31.300781 256.289062 31.398438 C 255.785156 31.5 255.296875 31.648438 254.824219 31.84375 C 254.347656 32.039062 253.898438 32.28125 253.472656 32.566406 C 253.046875 32.851562 252.652344 33.175781 252.289062 33.539062 C 251.925781 33.902344 251.601562 34.296875 251.316406 34.722656 C 251.03125 35.148438 250.789062 35.597656 250.59375 36.074219 C 250.398438 36.546875 250.25 37.035156 250.148438 37.539062 C 250.050781 38.042969 250 38.550781 250 39.0625 Z M 250 39.0625 " fill-opacity="1" fill-rule="nonzero"/></svg>