<svg xmlns="http://www.w3.org/2000/svg" xmlns:xlink="http://www.w3.org/1999/xlink" width="500" zoomAndPan="magnify" viewBox="0 0 375 374.999991" height="500" preserveAspectRatio="xMidYMid meet" version="1.0"><defs><filter x="0%" y="0%" width="100%" height="100%" id="dd47f063d3"><feColorMatrix values="0 0 0 0 1 0 0 0 0 1 0 0 0 0 1 0 0 0 1 0" color-interpolation-filters="sRGB"/></filter><mask id="eb4559c199"><g filter="url(#dd47f063d3)"><rect x="-37.5" width="450" fill="#000000" y="-37.499999" height="449.999989" fill-opacity="0.9"/></g></mask><clipPath id="7c3ddabac1"><rect x="0" width="313" y="0" height="313"/></clipPath></defs><g mask="url(#eb4559c199)"><g transform="matrix(1, 0, 0, 1, 31, 31)"><g clip-path="url(#7c3ddabac1)"><path fill="#000000" d="M 79.160156 311.878906 C 68.984375 311.894531 59.179688 309.996094 49.746094 306.183594 C 47.332031 305.210938 44.976562 304.117188 42.675781 302.90625 C 40.375 301.691406 38.140625 300.367188 35.96875 298.933594 C 33.800781 297.496094 31.710938 295.957031 29.695312 294.308594 C 27.683594 292.664062 25.757812 290.921875 23.917969 289.082031 C 22.078125 287.242188 20.335938 285.316406 18.691406 283.304688 C 17.042969 281.289062 15.503906 279.199219 14.066406 277.027344 C 12.632812 274.859375 11.308594 272.625 10.09375 270.324219 C 8.882812 268.023438 7.789062 265.667969 6.816406 263.253906 C 4.933594 258.578125 3.511719 253.765625 2.554688 248.820312 C 1.597656 243.871094 1.117188 238.875 1.117188 233.835938 C 1.117188 228.796875 1.597656 223.800781 2.554688 218.855469 C 3.511719 213.90625 4.933594 209.09375 6.816406 204.417969 C 8.765625 199.578125 11.179688 194.984375 14.058594 190.636719 C 16.9375 186.289062 20.222656 182.273438 23.917969 178.589844 L 73.636719 128.878906 C 77.320312 125.183594 81.335938 121.898438 85.683594 119.019531 C 90.03125 116.140625 94.625 113.726562 99.464844 111.777344 C 104.140625 109.894531 108.953125 108.476562 113.898438 107.519531 C 118.847656 106.558594 123.84375 106.082031 128.882812 106.082031 C 133.921875 106.082031 138.917969 106.558594 143.867188 107.519531 C 148.8125 108.476562 153.625 109.894531 158.300781 111.777344 C 163.140625 113.726562 167.734375 116.140625 172.082031 119.019531 C 176.429688 121.898438 180.445312 125.183594 184.128906 128.878906 C 184.492188 129.242188 184.816406 129.636719 185.101562 130.0625 C 185.382812 130.488281 185.625 130.9375 185.820312 131.414062 C 186.015625 131.886719 186.164062 132.375 186.265625 132.878906 C 186.363281 133.382812 186.414062 133.890625 186.414062 134.402344 C 186.414062 134.914062 186.363281 135.421875 186.261719 135.925781 C 186.164062 136.429688 186.015625 136.917969 185.816406 137.390625 C 185.621094 137.863281 185.382812 138.3125 185.097656 138.738281 C 184.8125 139.167969 184.488281 139.5625 184.125 139.921875 C 183.761719 140.285156 183.367188 140.609375 182.941406 140.894531 C 182.515625 141.179688 182.066406 141.421875 181.589844 141.617188 C 181.117188 141.8125 180.628906 141.960938 180.125 142.0625 C 179.625 142.160156 179.117188 142.210938 178.601562 142.210938 C 178.089844 142.210938 177.582031 142.164062 177.078125 142.0625 C 176.578125 141.960938 176.089844 141.816406 175.613281 141.617188 C 175.140625 141.421875 174.691406 141.183594 174.265625 140.898438 C 173.835938 140.613281 173.441406 140.289062 173.078125 139.925781 C 161.328125 128.175781 145.636719 121.707031 128.890625 121.707031 C 112.144531 121.707031 96.441406 128.179688 84.683594 139.925781 L 34.964844 189.644531 C 23.214844 201.394531 16.746094 217.089844 16.746094 233.832031 C 16.746094 250.578125 23.214844 266.28125 34.964844 278.023438 C 46.71875 289.765625 62.410156 296.242188 79.15625 296.242188 C 95.902344 296.242188 111.601562 289.773438 123.34375 278.023438 L 149.628906 251.742188 C 149.988281 251.382812 150.382812 251.058594 150.8125 250.773438 C 151.238281 250.488281 151.6875 250.246094 152.160156 250.050781 C 152.636719 249.855469 153.125 249.707031 153.628906 249.605469 C 154.128906 249.503906 154.636719 249.457031 155.152344 249.457031 C 155.664062 249.457031 156.171875 249.503906 156.675781 249.605469 C 157.179688 249.707031 157.667969 249.851562 158.140625 250.050781 C 158.613281 250.246094 159.066406 250.488281 159.492188 250.769531 C 159.917969 251.054688 160.3125 251.378906 160.675781 251.742188 C 161.039062 252.105469 161.363281 252.5 161.648438 252.925781 C 161.933594 253.351562 162.171875 253.804688 162.371094 254.277344 C 162.566406 254.75 162.714844 255.238281 162.816406 255.742188 C 162.914062 256.246094 162.964844 256.753906 162.964844 257.265625 C 162.964844 257.78125 162.914062 258.289062 162.816406 258.792969 C 162.714844 259.292969 162.566406 259.78125 162.371094 260.257812 C 162.175781 260.730469 161.933594 261.179688 161.648438 261.609375 C 161.363281 262.035156 161.039062 262.429688 160.675781 262.792969 L 134.402344 289.082031 C 130.71875 292.773438 126.703125 296.058594 122.355469 298.9375 C 118.003906 301.8125 113.414062 304.226562 108.574219 306.171875 C 99.140625 309.988281 89.335938 311.890625 79.160156 311.882812 Z M 213.535156 201.222656 C 218.375 199.273438 222.96875 196.859375 227.316406 193.980469 C 231.664062 191.101562 235.679688 187.816406 239.363281 184.121094 L 289.082031 134.402344 C 292.773438 130.71875 296.058594 126.703125 298.9375 122.355469 C 301.8125 118.003906 304.226562 113.414062 306.171875 108.574219 C 308.054688 103.898438 309.472656 99.085938 310.433594 94.140625 C 311.390625 89.191406 311.871094 84.195312 311.871094 79.15625 C 311.871094 74.117188 311.390625 69.121094 310.433594 64.171875 C 309.472656 59.226562 308.054688 54.414062 306.171875 49.738281 C 305.199219 47.324219 304.105469 44.96875 302.890625 42.667969 C 301.679688 40.367188 300.355469 38.132812 298.921875 35.964844 C 297.484375 33.792969 295.945312 31.703125 294.296875 29.6875 C 292.652344 27.675781 290.910156 25.75 289.070312 23.910156 C 287.230469 22.070312 285.304688 20.328125 283.289062 18.683594 C 281.277344 17.035156 279.1875 15.496094 277.015625 14.058594 C 274.847656 12.625 272.613281 11.300781 270.3125 10.089844 C 268.011719 8.875 265.652344 7.78125 263.242188 6.808594 C 258.566406 4.925781 253.753906 3.507812 248.808594 2.546875 C 243.859375 1.589844 238.863281 1.109375 233.824219 1.109375 C 228.785156 1.109375 223.789062 1.589844 218.839844 2.546875 C 213.894531 3.507812 209.082031 4.925781 204.40625 6.808594 C 199.566406 8.757812 194.972656 11.171875 190.625 14.050781 C 186.277344 16.929688 182.261719 20.214844 178.578125 23.910156 L 152.316406 50.199219 C 151.953125 50.5625 151.628906 50.957031 151.34375 51.382812 C 151.058594 51.808594 150.820312 52.257812 150.621094 52.734375 C 150.425781 53.207031 150.277344 53.695312 150.175781 54.199219 C 150.078125 54.703125 150.027344 55.210938 150.027344 55.722656 C 150.027344 56.234375 150.078125 56.746094 150.179688 57.246094 C 150.277344 57.75 150.425781 58.238281 150.621094 58.714844 C 150.820312 59.1875 151.058594 59.636719 151.34375 60.0625 C 151.628906 60.488281 151.953125 60.882812 152.316406 61.246094 C 152.679688 61.609375 153.074219 61.933594 153.5 62.21875 C 153.925781 62.503906 154.378906 62.746094 154.851562 62.941406 C 155.324219 63.136719 155.8125 63.285156 156.316406 63.386719 C 156.820312 63.484375 157.328125 63.535156 157.839844 63.535156 C 158.355469 63.535156 158.863281 63.484375 159.367188 63.382812 C 159.867188 63.285156 160.355469 63.136719 160.832031 62.941406 C 161.304688 62.742188 161.753906 62.503906 162.179688 62.21875 C 162.609375 61.933594 163.003906 61.609375 163.363281 61.246094 L 189.644531 34.964844 C 201.394531 23.214844 217.089844 16.742188 233.832031 16.746094 C 250.578125 16.75 266.28125 23.214844 278.023438 34.964844 C 289.765625 46.71875 296.246094 62.410156 296.246094 79.15625 C 296.246094 95.902344 289.773438 111.601562 278.023438 123.34375 L 228.316406 173.070312 C 216.566406 184.824219 200.871094 191.292969 184.125 191.292969 C 167.382812 191.292969 151.683594 184.824219 139.9375 173.070312 C 139.574219 172.710938 139.179688 172.386719 138.753906 172.101562 C 138.328125 171.816406 137.875 171.578125 137.402344 171.382812 C 136.929688 171.183594 136.441406 171.039062 135.9375 170.9375 C 135.433594 170.835938 134.925781 170.789062 134.414062 170.789062 C 133.902344 170.789062 133.394531 170.839844 132.890625 170.9375 C 132.386719 171.039062 131.898438 171.1875 131.425781 171.382812 C 130.953125 171.578125 130.5 171.820312 130.074219 172.105469 C 129.648438 172.390625 129.253906 172.714844 128.890625 173.078125 C 128.53125 173.4375 128.207031 173.832031 127.921875 174.261719 C 127.636719 174.6875 127.394531 175.136719 127.199219 175.609375 C 127.003906 176.082031 126.855469 176.570312 126.753906 177.074219 C 126.652344 177.578125 126.605469 178.085938 126.601562 178.597656 C 126.601562 179.109375 126.652344 179.617188 126.753906 180.121094 C 126.851562 180.625 127 181.113281 127.195312 181.585938 C 127.390625 182.0625 127.632812 182.511719 127.917969 182.9375 C 128.203125 183.363281 128.523438 183.757812 128.886719 184.121094 C 132.570312 187.816406 136.585938 191.101562 140.9375 193.980469 C 145.285156 196.859375 149.878906 199.273438 154.714844 201.222656 C 159.390625 203.105469 164.203125 204.523438 169.152344 205.480469 C 174.101562 206.441406 179.09375 206.917969 184.132812 206.917969 C 189.175781 206.917969 194.167969 206.441406 199.117188 205.480469 C 204.066406 204.523438 208.878906 203.105469 213.554688 201.222656 Z M 213.535156 201.222656 " fill-opacity="1" fill-rule="nonzero"/></g></g></g></svg>