<svg xmlns="http://www.w3.org/2000/svg" xmlns:xlink="http://www.w3.org/1999/xlink" width="500" zoomAndPan="magnify" viewBox="0 0 375 374.999991" height="500" preserveAspectRatio="xMidYMid meet" version="1.0"><defs><clipPath id="4556e7366b"><path d="M 3.71875 3.71875 L 371.28125 3.71875 L 371.28125 371.28125 L 3.71875 371.28125 Z M 3.71875 3.71875 " clip-rule="nonzero"/></clipPath><clipPath id="4f38f59ccd"><path d="M 187.5 3.71875 C 86 3.71875 3.71875 86 3.71875 187.5 C 3.71875 289 86 371.28125 187.5 371.28125 C 289 371.28125 371.28125 289 371.28125 187.5 C 371.28125 86 289 3.71875 187.5 3.71875 Z M 187.5 3.71875 " clip-rule="nonzero"/></clipPath><clipPath id="7bd5aea66c"><path d="M 0.71875 0.71875 L 368.28125 0.71875 L 368.28125 368.28125 L 0.71875 368.28125 Z M 0.71875 0.71875 " clip-rule="nonzero"/></clipPath><clipPath id="0913c6487c"><path d="M 184.5 0.71875 C 83 0.71875 0.71875 83 0.71875 184.5 C 0.71875 286 83 368.28125 184.5 368.28125 C 286 368.28125 368.28125 286 368.28125 184.5 C 368.28125 83 286 0.71875 184.5 0.71875 Z M 184.5 0.71875 " clip-rule="nonzero"/></clipPath><clipPath id="b2fd1e663a"><rect x="0" width="369" y="0" height="369"/></clipPath><clipPath id="f913c333cc"><path d="M 3.71875 3.71875 L 371.21875 3.71875 L 371.21875 371.21875 L 3.71875 371.21875 Z M 3.71875 3.71875 " clip-rule="nonzero"/></clipPath><clipPath id="96ed936277"><path d="M 187.496094 3.71875 C 86 3.71875 3.71875 86 3.71875 187.496094 C 3.71875 288.996094 86 371.277344 187.496094 371.277344 C 288.996094 371.277344 371.277344 288.996094 371.277344 187.496094 C 371.277344 86 288.996094 3.71875 187.496094 3.71875 Z M 187.496094 3.71875 " clip-rule="nonzero"/></clipPath><clipPath id="3c653c1c9d"><path d="M 0.761719 93 L 87 93 L 87 105 L 0.761719 105 Z M 0.761719 93 " clip-rule="nonzero"/></clipPath><clipPath id="a9ad140727"><path d="M 22 0.0390625 L 186 0.0390625 L 186 148.359375 L 22 148.359375 Z M 22 0.0390625 " clip-rule="nonzero"/></clipPath><clipPath id="e4e7c77fa5"><path d="M 64 0.0390625 L 197 0.0390625 L 197 148.359375 L 64 148.359375 Z M 64 0.0390625 " clip-rule="nonzero"/></clipPath><clipPath id="b582bfd52e"><path d="M 76 0.0390625 L 244 0.0390625 L 244 148.359375 L 76 148.359375 Z M 76 0.0390625 " clip-rule="nonzero"/></clipPath><clipPath id="2d5e70fe6b"><path d="M 123 0.0390625 L 258 0.0390625 L 258 148.359375 L 123 148.359375 Z M 123 0.0390625 " clip-rule="nonzero"/></clipPath><clipPath id="7752d1f4dd"><path d="M 136 0.0390625 L 282 0.0390625 L 282 148.359375 L 136 148.359375 Z M 136 0.0390625 " clip-rule="nonzero"/></clipPath><clipPath id="0e936cf416"><path d="M 160 0.0390625 L 295 0.0390625 L 295 148.359375 L 160 148.359375 Z M 160 0.0390625 " clip-rule="nonzero"/></clipPath><clipPath id="e813cec176"><path d="M 174 40 L 328.839844 40 L 328.839844 148.359375 L 174 148.359375 Z M 174 40 " clip-rule="nonzero"/></clipPath><clipPath id="2ce1001193"><rect x="0" width="329" y="0" height="149"/></clipPath></defs><g clip-path="url(#4556e7366b)"><g clip-path="url(#4f38f59ccd)"><g transform="matrix(1, 0, 0, 1, 3, 3)"><g clip-path="url(#b2fd1e663a)"><g clip-path="url(#7bd5aea66c)"><g clip-path="url(#0913c6487c)"><path fill="#196f52" d="M 0.71875 0.71875 L 368.28125 0.71875 L 368.28125 368.28125 L 0.71875 368.28125 Z M 0.71875 0.71875 " fill-opacity="1" fill-rule="nonzero"/></g></g></g></g></g></g><g clip-path="url(#f913c333cc)"><g clip-path="url(#96ed936277)"><path stroke-linecap="butt" transform="matrix(0.75, 0, 0, 0.75, 3.717424, 3.717419)" fill="none" stroke-linejoin="miter" d="M 245.038243 0.00177452 C 109.710109 0.00177452 0.00176852 109.710115 0.00176852 245.038249 C 0.00176852 380.371591 109.710109 490.079932 245.038243 490.079932 C 380.371585 490.079932 490.079926 380.371591 490.079926 245.038249 C 490.079926 109.710115 380.371585 0.00177452 245.038243 0.00177452 Z M 245.038243 0.00177452 " stroke="#193f32" stroke-width="6" stroke-opacity="1" stroke-miterlimit="4"/></g></g><g transform="matrix(1, 0, 0, 1, 23, 113)"><g clip-path="url(#2ce1001193)"><g clip-path="url(#3c653c1c9d)"><path stroke-linecap="round" transform="matrix(0.726384, 0, 0, 0.726384, 0.931412, 93.929455)" fill="none" stroke-linejoin="miter" d="M 7.499468 7.502161 L 110.110678 7.502161 " stroke="#ffffff" stroke-width="15" stroke-opacity="1" stroke-miterlimit="4"/></g><g clip-path="url(#a9ad140727)"><path stroke-linecap="round" transform="matrix(0.296286, -0.663211, 0.663211, 0.296286, 76.849504, 99.532291)" fill="none" stroke-linejoin="miter" d="M 7.499521 7.501938 L 141.541988 7.501786 " stroke="#ffffff" stroke-width="15" stroke-opacity="1" stroke-miterlimit="4"/></g><g clip-path="url(#e4e7c77fa5)"><path stroke-linecap="round" transform="matrix(-0.047642, -0.72482, 0.72482, -0.047642, 129.934986, 146.166438)" fill="none" stroke-linejoin="miter" d="M 7.502419 7.502648 L 189.654459 7.500438 " stroke="#ffffff" stroke-width="15" stroke-opacity="1" stroke-miterlimit="4"/></g><g clip-path="url(#b582bfd52e)"><path stroke-linecap="round" transform="matrix(0.332708, -0.645708, 0.645708, 0.332708, 130.531117, 143.314593)" fill="none" stroke-linejoin="miter" d="M 7.499139 7.503314 L 139.170956 7.497743 " stroke="#ffffff" stroke-width="15" stroke-opacity="1" stroke-miterlimit="4"/></g><g clip-path="url(#2d5e70fe6b)"><path stroke-linecap="round" transform="matrix(-0.123028, -0.71589, 0.71589, -0.123028, 191.839161, 127.883813)" fill="none" stroke-linejoin="miter" d="M 7.497638 7.498946 L 98.457641 7.497892 " stroke="#ffffff" stroke-width="15" stroke-opacity="1" stroke-miterlimit="4"/></g><g clip-path="url(#7752d1f4dd)"><path stroke-linecap="round" transform="matrix(0.186003, -0.702166, 0.702166, 0.186003, 191.943311, 125.566664)" fill="none" stroke-linejoin="miter" d="M 7.500488 7.501141 L 122.239608 7.498326 " stroke="#ffffff" stroke-width="15" stroke-opacity="1" stroke-miterlimit="4"/></g><g clip-path="url(#0e936cf416)"><path stroke-linecap="round" transform="matrix(-0.108739, -0.718199, 0.718199, -0.108739, 228.351971, 118.568814)" fill="none" stroke-linejoin="miter" d="M 7.499656 7.498496 L 106.520841 7.501109 " stroke="#ffffff" stroke-width="15" stroke-opacity="1" stroke-miterlimit="4"/></g><g clip-path="url(#e813cec176)"><path stroke-linecap="round" transform="matrix(0.719123, -0.102452, 0.102452, 0.719123, 230.033317, 109.364601)" fill="none" stroke-linejoin="miter" d="M 7.500512 7.498198 L 126.688678 7.498404 " stroke="#ffffff" stroke-width="15" stroke-opacity="1" stroke-miterlimit="4"/></g></g></g></svg>