<svg xmlns="http://www.w3.org/2000/svg" xmlns:xlink="http://www.w3.org/1999/xlink" width="500" zoomAndPan="magnify" viewBox="0 0 375 374.999991" height="500" preserveAspectRatio="xMidYMid meet" version="1.0"><path fill="#196f52" d="M 285.734375 130.316406 C 281.542969 130.316406 278.125 133.726562 278.125 137.921875 L 278.125 295.59375 C 278.125 302.265625 272.699219 307.699219 266.027344 307.699219 L 88.644531 307.699219 C 81.972656 307.699219 76.542969 302.265625 76.542969 295.59375 L 76.542969 98.503906 C 76.542969 91.832031 81.972656 86.402344 88.644531 86.402344 L 226.609375 86.402344 C 230.800781 86.402344 234.21875 82.992188 234.21875 78.792969 C 234.21875 74.601562 230.804688 71.183594 226.609375 71.183594 L 88.644531 71.183594 C 73.582031 71.183594 61.324219 83.4375 61.324219 98.5 L 61.324219 295.589844 C 61.324219 310.65625 73.578125 322.910156 88.644531 322.910156 L 266.027344 322.910156 C 281.089844 322.910156 293.34375 310.65625 293.34375 295.589844 L 293.34375 137.921875 C 293.34375 133.726562 289.929688 130.316406 285.734375 130.316406 Z M 285.734375 130.316406 " fill-opacity="1" fill-rule="nonzero"/><path fill="#196f52" d="M 100.742188 216.761719 C 100.742188 220.953125 104.152344 224.367188 108.351562 224.367188 L 226.605469 224.367188 C 230.796875 224.367188 234.214844 220.957031 234.214844 216.761719 C 234.214844 212.566406 230.800781 209.148438 226.605469 209.148438 L 108.351562 209.148438 C 104.15625 209.148438 100.742188 212.5625 100.742188 216.761719 Z M 167.480469 150.023438 L 108.351562 150.023438 C 104.15625 150.023438 100.742188 153.433594 100.742188 157.632812 C 100.742188 161.828125 104.152344 165.242188 108.351562 165.242188 L 167.480469 165.242188 C 171.671875 165.242188 175.085938 161.828125 175.085938 157.632812 C 175.085938 153.433594 171.675781 150.023438 167.480469 150.023438 Z M 311.441406 54.320312 C 310 52.878906 308.09375 52.089844 306.0625 52.089844 C 304.027344 52.089844 302.121094 52.878906 300.679688 54.320312 L 202.753906 152.253906 C 201.3125 153.691406 200.523438 155.601562 200.523438 157.632812 C 200.523438 159.660156 201.3125 161.570312 202.753906 163.007812 C 204.109375 164.367188 206.066406 165.144531 208.136719 165.144531 L 208.144531 165.144531 C 210.207031 165.144531 212.160156 164.367188 213.503906 163.011719 L 311.441406 65.074219 C 312.878906 63.636719 313.671875 61.726562 313.671875 59.695312 C 313.671875 57.667969 312.878906 55.757812 311.441406 54.320312 Z M 311.441406 54.320312 " fill-opacity="1" fill-rule="nonzero"/></svg>