<svg xmlns="http://www.w3.org/2000/svg" xmlns:xlink="http://www.w3.org/1999/xlink" width="500" zoomAndPan="magnify" viewBox="0 0 375 374.999991" height="500" preserveAspectRatio="xMidYMid meet" version="1.0"><defs><clipPath id="a2f6576914"><path d="M 31 0.558594 L 205 0.558594 L 205 171.921875 L 31 171.921875 Z M 31 0.558594 " clip-rule="nonzero"/></clipPath><clipPath id="58a1378274"><path d="M 80 0.558594 L 218 0.558594 L 218 171.921875 L 80 171.921875 Z M 80 0.558594 " clip-rule="nonzero"/></clipPath><clipPath id="1f571bc577"><path d="M 93 2 L 271 2 L 271 171.921875 L 93 171.921875 Z M 93 2 " clip-rule="nonzero"/></clipPath><clipPath id="f437ff1e87"><path d="M 147 2 L 288 2 L 288 171.921875 L 147 171.921875 Z M 147 2 " clip-rule="nonzero"/></clipPath><clipPath id="28f6edef7c"><path d="M 163 0.558594 L 315 0.558594 L 315 171.921875 L 163 171.921875 Z M 163 0.558594 " clip-rule="nonzero"/></clipPath><clipPath id="36a7f998e1"><path d="M 190 0.558594 L 330 0.558594 L 330 171.921875 L 190 171.921875 Z M 190 0.558594 " clip-rule="nonzero"/></clipPath><clipPath id="f146d73ceb"><path d="M 205 55 L 375 55 L 375 171.921875 L 205 171.921875 Z M 205 55 " clip-rule="nonzero"/></clipPath><clipPath id="1f347938f9"><rect x="0" width="375" y="0" height="172"/></clipPath></defs><g transform="matrix(1, 0, 0, 1, 0, 100)"><g clip-path="url(#1f347938f9)"><path stroke-linecap="round" transform="matrix(3.732091, 0, 0, 3.732091, 0.0000045, 110.442193)" fill="none" stroke-linejoin="miter" d="M 1.49987 1.49966 L 24.746306 1.49966 " stroke="#336d63" stroke-width="3" stroke-opacity="1" stroke-miterlimit="4"/><g clip-path="url(#a2f6576914)"><path stroke-linecap="round" transform="matrix(1.52229, -3.407512, 3.407512, 1.52229, 87.629656, 116.468473)" fill="none" stroke-linejoin="miter" d="M 1.499903 1.499773 L 31.760595 1.500024 " stroke="#336d63" stroke-width="3" stroke-opacity="1" stroke-miterlimit="4"/></g><g clip-path="url(#58a1378274)"><path stroke-linecap="round" transform="matrix(-0.24478, -3.724055, 3.724055, -0.24478, 148.540908, 169.626917)" fill="none" stroke-linejoin="miter" d="M 1.500445 1.500539 L 42.497701 1.49953 " stroke="#336d63" stroke-width="3" stroke-opacity="1" stroke-miterlimit="4"/></g><g clip-path="url(#1f571bc577)"><path stroke-linecap="round" transform="matrix(1.709422, -3.317586, 3.317586, 1.709422, 149.164228, 166.699514)" fill="none" stroke-linejoin="miter" d="M 1.499374 1.499835 L 31.230916 1.499976 " stroke="#196f52" stroke-width="3" stroke-opacity="1" stroke-miterlimit="4"/></g><g clip-path="url(#f437ff1e87)"><path stroke-linecap="round" transform="matrix(-0.632107, -3.678171, 3.678171, -0.632107, 219.522384, 148.608049)" fill="none" stroke-linejoin="miter" d="M 1.499573 1.499482 L 22.145906 1.500521 " stroke="#336d63" stroke-width="3" stroke-opacity="1" stroke-miterlimit="4"/></g><g clip-path="url(#28f6edef7c)"><path stroke-linecap="round" transform="matrix(0.955665, -3.60766, 3.60766, 0.955665, 219.618696, 146.208813)" fill="none" stroke-linejoin="miter" d="M 1.500171 1.500276 L 27.452885 1.499908 " stroke="#336d63" stroke-width="3" stroke-opacity="1" stroke-miterlimit="4"/></g><g clip-path="url(#36a7f998e1)"><path stroke-linecap="round" transform="matrix(-0.558692, -3.690036, 3.690036, -0.558692, 261.384655, 137.935946)" fill="none" stroke-linejoin="miter" d="M 1.500079 1.50011 L 23.945407 1.500373 " stroke="#336d63" stroke-width="3" stroke-opacity="1" stroke-miterlimit="4"/></g><g clip-path="url(#f146d73ceb)"><path stroke-linecap="round" transform="matrix(3.694782, -0.526389, 0.526389, 3.694782, 262.776755, 128.131323)" fill="none" stroke-linejoin="miter" d="M 1.50027 1.499741 L 28.445983 1.499833 " stroke="#336d63" stroke-width="3" stroke-opacity="1" stroke-miterlimit="4"/></g></g></g></svg>