<svg xmlns="http://www.w3.org/2000/svg" xmlns:xlink="http://www.w3.org/1999/xlink" width="500" zoomAndPan="magnify" viewBox="0 0 375 374.999991" height="500" preserveAspectRatio="xMidYMid meet" version="1.0"><path fill="#196f52" d="M 187.5 22.992188 C 142.195312 22.992188 105.46875 59.71875 105.46875 105.023438 C 105.46875 150.328125 142.195312 187.054688 187.5 187.054688 C 232.804688 187.054688 269.53125 150.328125 269.53125 105.023438 C 269.53125 59.71875 232.804688 22.992188 187.5 22.992188 Z M 187.5 163.617188 C 155.144531 163.617188 128.90625 137.378906 128.90625 105.023438 C 128.90625 72.667969 155.144531 46.429688 187.5 46.429688 C 219.855469 46.429688 246.09375 72.667969 246.09375 105.023438 C 246.09375 137.378906 219.867188 163.617188 187.5 163.617188 Z M 351.316406 316.769531 C 345.046875 231.878906 273.984375 164.554688 187.5 164.554688 C 97.21875 164.554688 24.023438 237.480469 23.484375 327.644531 C 23.484375 327.796875 23.4375 327.960938 23.4375 328.125 C 23.4375 328.183594 23.449219 328.230469 23.449219 328.289062 C 23.449219 328.394531 23.4375 328.5 23.4375 328.617188 L 23.496094 328.664062 C 23.789062 341.355469 34.113281 351.5625 46.875 351.5625 C 47.308594 351.5625 47.71875 351.457031 48.152344 351.433594 L 48.292969 351.5625 L 293.90625 351.5625 C 300.515625 351.5625 305.871094 346.3125 305.871094 339.84375 C 305.871094 333.375 300.515625 328.125 293.90625 328.125 L 58.359375 328.125 C 46.875 328.125 43.699219 328.617188 49.042969 304.910156 C 60.328125 238.558594 117.9375 187.992188 187.5 187.992188 C 261.046875 187.992188 321.304688 244.476562 327.503906 316.40625 L 327.433594 316.40625 C 327.761719 320.15625 328.054688 323.929688 328.078125 327.761719 L 328.125 327.761719 L 328.125 340.652344 L 328.289062 340.652344 C 328.722656 346.722656 333.65625 351.5625 339.84375 351.5625 C 346.03125 351.5625 350.964844 346.722656 351.398438 340.652344 L 351.5625 340.652344 L 351.257812 316.78125 " fill-opacity="1" fill-rule="nonzero"/></svg>