<svg xmlns="http://www.w3.org/2000/svg" xmlns:xlink="http://www.w3.org/1999/xlink" width="500" zoomAndPan="magnify" viewBox="0 0 375 374.999991" height="500" preserveAspectRatio="xMidYMid meet" version="1.0"><path fill="#1e1e1e" d="M 76.5 288.75 L 132.375 271.125 C 135.375 270 138.375 268.5 140.625 265.875 L 288.375 107.25 C 306.75 87.75 305.625 57.375 286.125 39 C 266.625 21 236.25 22.125 217.875 41.625 L 70.125 199.875 C 67.875 202.5 66.375 205.5 65.625 208.5 L 52.125 266.25 C 48.75 280.5 62.25 293.25 76.5 288.75 Z M 231.75 54.375 C 242.625 42.75 261.375 42 273 52.875 C 284.625 63.75 285.375 82.5 274.5 94.125 L 263.625 105.75 L 222.375 64.5 Z M 84 213 L 209.625 78.375 L 250.875 119.625 L 126.75 252.75 L 70.875 270.375 Z M 313.875 321.375 L 45.75 321.375 C 40.5 321.375 36.375 325.5 36.375 330.75 C 36.375 336 40.5 340.125 45.75 340.125 L 313.875 340.125 C 319.125 340.125 323.25 336 323.25 330.75 C 323.25 325.5 319.125 321.375 313.875 321.375 Z M 313.875 321.375 " fill-opacity="1" fill-rule="nonzero"/></svg>