<svg xmlns="http://www.w3.org/2000/svg" xmlns:xlink="http://www.w3.org/1999/xlink" width="500" zoomAndPan="magnify" viewBox="0 0 375 374.999991" height="500" preserveAspectRatio="xMidYMid meet" version="1.0"><path fill="#000000" d="M 224.386719 298.84375 L 173.882812 298.84375 C 173.078125 298.84375 172.28125 298.761719 171.492188 298.605469 C 170.703125 298.449219 169.941406 298.214844 169.195312 297.90625 C 168.453125 297.597656 167.75 297.21875 167.082031 296.773438 C 166.414062 296.328125 165.796875 295.820312 165.226562 295.25 C 164.660156 294.679688 164.152344 294.0625 163.703125 293.394531 C 163.257812 292.726562 162.878906 292.019531 162.574219 291.277344 C 162.265625 290.535156 162.03125 289.769531 161.875 288.980469 C 161.71875 288.195312 161.636719 287.398438 161.636719 286.59375 L 161.636719 61.085938 C 161.636719 54.335938 167.132812 48.84375 173.882812 48.84375 L 224.386719 48.84375 C 231.144531 48.84375 236.636719 54.335938 236.636719 61.085938 L 236.636719 286.59375 C 236.636719 293.351562 231.144531 298.84375 224.386719 298.84375 Z M 174.136719 286.34375 L 224.386719 286.34375 L 224.136719 61.085938 L 173.882812 61.34375 Z M 131.488281 298.84375 L 79.28125 298.84375 C 78.535156 298.84375 77.792969 298.769531 77.058594 298.621094 C 76.324219 298.476562 75.613281 298.257812 74.921875 297.972656 C 74.230469 297.683594 73.574219 297.332031 72.953125 296.917969 C 72.332031 296.5 71.757812 296.027344 71.226562 295.5 C 70.699219 294.96875 70.226562 294.394531 69.8125 293.773438 C 69.394531 293.148438 69.042969 292.492188 68.757812 291.804688 C 68.472656 291.113281 68.253906 290.398438 68.109375 289.667969 C 67.960938 288.933594 67.886719 288.191406 67.886719 287.445312 L 67.886719 122.738281 C 67.886719 116.457031 73 111.34375 79.28125 111.34375 L 131.488281 111.34375 C 137.773438 111.34375 142.886719 116.457031 142.886719 122.738281 L 142.886719 287.445312 C 142.886719 288.191406 142.8125 288.933594 142.667969 289.667969 C 142.519531 290.402344 142.304688 291.113281 142.015625 291.804688 C 141.730469 292.496094 141.378906 293.152344 140.960938 293.773438 C 140.546875 294.394531 140.074219 294.972656 139.542969 295.5 C 139.015625 296.03125 138.441406 296.503906 137.816406 296.917969 C 137.195312 297.335938 136.539062 297.6875 135.847656 297.972656 C 135.15625 298.257812 134.445312 298.476562 133.710938 298.621094 C 132.976562 298.769531 132.234375 298.84375 131.488281 298.84375 Z M 80.386719 286.34375 L 130.386719 286.34375 L 130.386719 123.84375 L 80.386719 123.84375 Z M 320.007812 298.84375 L 265.761719 298.84375 C 260.042969 298.84375 255.386719 294.1875 255.386719 288.460938 L 255.386719 184.21875 C 255.386719 178.5 260.042969 173.84375 265.761719 173.84375 L 320.007812 173.84375 C 325.730469 173.84375 330.386719 178.5 330.386719 184.21875 L 330.386719 288.460938 C 330.386719 294.1875 325.730469 298.84375 320.007812 298.84375 Z M 267.886719 286.34375 L 317.886719 286.34375 L 317.886719 186.34375 L 267.886719 186.34375 Z M 267.886719 286.34375 " fill-opacity="1" fill-rule="nonzero"/></svg>