<svg xmlns="http://www.w3.org/2000/svg" xmlns:xlink="http://www.w3.org/1999/xlink" width="500" zoomAndPan="magnify" viewBox="0 0 375 374.999991" height="500" preserveAspectRatio="xMidYMid meet" version="1.0"><defs><filter x="0%" y="0%" width="100%" height="100%" id="5c210c8c26"><feColorMatrix values="0 0 0 0 1 0 0 0 0 1 0 0 0 0 1 0 0 0 1 0" color-interpolation-filters="sRGB"/></filter><g/><mask id="ed713de31c"><g filter="url(#5c210c8c26)"><rect x="-37.5" width="450" fill="#000000" y="-37.499999" height="449.999989" fill-opacity="0.9"/></g></mask><clipPath id="1552e75fc0"><rect x="0" width="375" y="0" height="325"/></clipPath><mask id="d9cae7f291"><g filter="url(#5c210c8c26)"><rect x="-37.5" width="450" fill="#000000" y="-37.499999" height="449.999989" fill-opacity="0.9"/></g></mask><clipPath id="111e2ffc5d"><path d="M 0.121094 0.71875 L 213 0.71875 L 213 165.359375 L 0.121094 165.359375 Z M 0.121094 0.71875 " clip-rule="nonzero"/></clipPath><clipPath id="dc3612d4f7"><rect x="0" width="213" y="0" height="166"/></clipPath><clipPath id="30d29454c6"><rect x="0" width="213" y="0" height="166"/></clipPath></defs><g mask="url(#ed713de31c)"><g transform="matrix(1, 0, 0, 1, 0, 0)"><g clip-path="url(#1552e75fc0)"><path fill="#000000" d="M 315.304688 323.859375 L 59.648438 323.859375 C 57.695312 323.855469 55.746094 323.757812 53.804688 323.5625 C 51.859375 323.371094 49.929688 323.082031 48.015625 322.695312 C 46.101562 322.3125 44.207031 321.835938 42.339844 321.269531 C 40.472656 320.699219 38.636719 320.039062 36.832031 319.292969 C 35.027344 318.542969 33.265625 317.707031 31.542969 316.785156 C 29.820312 315.863281 28.148438 314.859375 26.523438 313.773438 C 24.902344 312.6875 23.335938 311.523438 21.824219 310.285156 C 20.316406 309.046875 18.871094 307.734375 17.488281 306.351562 C 16.109375 304.972656 14.800781 303.527344 13.558594 302.015625 C 12.320312 300.507812 11.160156 298.9375 10.074219 297.316406 C 8.988281 295.691406 7.984375 294.019531 7.0625 292.296875 C 6.140625 290.574219 5.308594 288.8125 4.558594 287.007812 C 3.808594 285.203125 3.152344 283.367188 2.582031 281.496094 C 2.015625 279.628906 1.539062 277.738281 1.15625 275.820312 C 0.773438 273.90625 0.488281 271.976562 0.292969 270.03125 C 0.101562 268.089844 0.00390625 266.140625 0 264.1875 L 0 51.140625 L 315.304688 51.140625 C 317.257812 51.144531 319.207031 51.242188 321.152344 51.433594 C 323.097656 51.628906 325.027344 51.914062 326.941406 52.296875 C 328.859375 52.679688 330.75 53.15625 332.621094 53.726562 C 334.492188 54.292969 336.328125 54.953125 338.132812 55.703125 C 339.9375 56.449219 341.703125 57.285156 343.425781 58.207031 C 345.148438 59.128906 346.820312 60.132812 348.445312 61.21875 C 350.070312 62.304688 351.636719 63.464844 353.148438 64.707031 C 354.660156 65.945312 356.105469 67.253906 357.488281 68.636719 C 358.867188 70.019531 360.179688 71.464844 361.417969 72.972656 C 362.660156 74.484375 363.824219 76.050781 364.910156 77.675781 C 365.996094 79.300781 367 80.972656 367.921875 82.695312 C 368.84375 84.417969 369.679688 86.179688 370.429688 87.984375 C 371.179688 89.789062 371.839844 91.628906 372.40625 93.496094 C 372.976562 95.367188 373.453125 97.257812 373.835938 99.175781 C 374.222656 101.089844 374.507812 103.019531 374.703125 104.964844 C 374.898438 106.910156 374.996094 108.859375 375 110.8125 L 375 264.210938 C 374.996094 266.164062 374.898438 268.113281 374.703125 270.058594 C 374.507812 272 374.21875 273.929688 373.832031 275.84375 C 373.449219 277.761719 372.972656 279.652344 372.402344 281.519531 C 371.832031 283.390625 371.171875 285.226562 370.421875 287.03125 C 369.675781 288.832031 368.839844 290.597656 367.914062 292.320312 C 366.992188 294.039062 365.988281 295.714844 364.902344 297.335938 C 363.816406 298.960938 362.652344 300.527344 361.410156 302.035156 C 360.171875 303.546875 358.859375 304.992188 357.480469 306.371094 C 356.097656 307.75 354.652344 309.0625 353.140625 310.300781 C 351.628906 311.539062 350.0625 312.703125 348.4375 313.785156 C 346.8125 314.871094 345.140625 315.875 343.417969 316.796875 C 341.695312 317.71875 339.933594 318.554688 338.128906 319.300781 C 336.324219 320.050781 334.484375 320.707031 332.617188 321.277344 C 330.746094 321.84375 328.855469 322.320312 326.941406 322.703125 C 325.023438 323.085938 323.09375 323.371094 321.152344 323.566406 C 319.207031 323.757812 317.257812 323.855469 315.304688 323.859375 Z M 17.039062 68.179688 L 17.039062 264.1875 C 17.039062 265.582031 17.109375 266.972656 17.25 268.363281 C 17.386719 269.75 17.59375 271.128906 17.867188 272.496094 C 18.140625 273.863281 18.476562 275.214844 18.882812 276.550781 C 19.289062 277.886719 19.761719 279.199219 20.296875 280.484375 C 20.828125 281.773438 21.425781 283.035156 22.085938 284.265625 C 22.742188 285.496094 23.460938 286.6875 24.234375 287.847656 C 25.011719 289.007812 25.839844 290.128906 26.726562 291.207031 C 27.609375 292.285156 28.546875 293.316406 29.53125 294.304688 C 30.519531 295.289062 31.550781 296.226562 32.628906 297.109375 C 33.707031 297.996094 34.828125 298.824219 35.988281 299.601562 C 37.148438 300.375 38.339844 301.09375 39.570312 301.75 C 40.800781 302.410156 42.0625 303.007812 43.351562 303.539062 C 44.636719 304.074219 45.949219 304.546875 47.285156 304.953125 C 48.621094 305.355469 49.972656 305.695312 51.339844 305.96875 C 52.707031 306.242188 54.085938 306.449219 55.472656 306.585938 C 56.863281 306.726562 58.253906 306.796875 59.648438 306.796875 L 315.304688 306.796875 C 316.699219 306.796875 318.09375 306.726562 319.480469 306.589844 C 320.867188 306.453125 322.246094 306.246094 323.617188 305.972656 C 324.984375 305.703125 326.335938 305.363281 327.671875 304.957031 C 329.007812 304.550781 330.316406 304.082031 331.605469 303.546875 C 332.894531 303.011719 334.15625 302.417969 335.386719 301.757812 C 336.617188 301.101562 337.8125 300.382812 338.972656 299.609375 C 340.132812 298.832031 341.25 298.003906 342.328125 297.117188 C 343.40625 296.234375 344.441406 295.296875 345.425781 294.308594 C 346.414062 293.324219 347.351562 292.289062 348.234375 291.210938 C 349.121094 290.132812 349.949219 289.015625 350.726562 287.855469 C 351.5 286.695312 352.21875 285.5 352.875 284.269531 C 353.535156 283.039062 354.128906 281.777344 354.664062 280.488281 C 355.199219 279.199219 355.667969 277.890625 356.074219 276.554688 C 356.480469 275.21875 356.820312 273.867188 357.089844 272.5 C 357.363281 271.128906 357.570312 269.75 357.707031 268.363281 C 357.84375 266.976562 357.914062 265.582031 357.914062 264.1875 L 357.914062 110.8125 C 357.914062 109.417969 357.84375 108.023438 357.707031 106.636719 C 357.570312 105.25 357.363281 103.871094 357.089844 102.5 C 356.820312 101.132812 356.480469 99.78125 356.074219 98.445312 C 355.667969 97.109375 355.199219 95.800781 354.664062 94.511719 C 354.128906 93.222656 353.535156 91.960938 352.875 90.730469 C 352.21875 89.5 351.5 88.304688 350.726562 87.144531 C 349.949219 85.984375 349.121094 84.867188 348.234375 83.789062 C 347.351562 82.710938 346.414062 81.675781 345.425781 80.691406 C 344.441406 79.703125 343.40625 78.765625 342.328125 77.882812 C 341.25 76.996094 340.132812 76.167969 338.972656 75.390625 C 337.8125 74.617188 336.617188 73.898438 335.386719 73.242188 C 334.15625 72.582031 332.894531 71.988281 331.605469 71.453125 C 330.316406 70.917969 329.007812 70.449219 327.671875 70.042969 C 326.335938 69.636719 324.984375 69.296875 323.617188 69.027344 C 322.246094 68.753906 320.867188 68.546875 319.480469 68.410156 C 318.09375 68.273438 316.699219 68.203125 315.304688 68.203125 L 17.039062 68.203125 Z M 17.039062 68.179688 " fill-opacity="1" fill-rule="nonzero"/><path fill="#000000" d="M 196.007812 68.179688 L 0 68.179688 L 0 59.671875 C 0.00390625 57.71875 0.101562 55.769531 0.292969 53.828125 C 0.488281 51.882812 0.773438 49.953125 1.15625 48.039062 C 1.539062 46.121094 2.015625 44.230469 2.582031 42.363281 C 3.152344 40.492188 3.808594 38.65625 4.558594 36.851562 C 5.308594 35.046875 6.140625 33.285156 7.0625 31.5625 C 7.984375 29.839844 8.988281 28.167969 10.074219 26.542969 C 11.160156 24.921875 12.320312 23.351562 13.558594 21.84375 C 14.800781 20.332031 16.109375 18.886719 17.488281 17.507812 C 18.871094 16.125 20.316406 14.8125 21.824219 13.574219 C 23.335938 12.335938 24.902344 11.171875 26.523438 10.085938 C 28.148438 9 29.820312 7.996094 31.542969 7.074219 C 33.265625 6.152344 35.027344 5.316406 36.832031 4.566406 C 38.636719 3.820312 40.472656 3.160156 42.339844 2.589844 C 44.207031 2.023438 46.101562 1.546875 48.015625 1.164062 C 49.929688 0.777344 51.859375 0.488281 53.804688 0.296875 C 55.746094 0.101562 57.695312 0.00390625 59.648438 0 L 161.929688 0 C 180.726562 0 196.007812 15.28125 196.007812 34.101562 Z M 17.90625 51.140625 L 178.992188 51.140625 L 178.992188 34.101562 C 178.992188 33.542969 178.960938 32.984375 178.90625 32.429688 C 178.851562 31.875 178.765625 31.324219 178.65625 30.777344 C 178.546875 30.230469 178.410156 29.6875 178.246094 29.152344 C 178.085938 28.621094 177.894531 28.09375 177.679688 27.578125 C 177.464844 27.0625 177.226562 26.558594 176.964844 26.066406 C 176.699219 25.574219 176.414062 25.097656 176.101562 24.632812 C 175.792969 24.167969 175.460938 23.722656 175.105469 23.289062 C 174.75 22.859375 174.375 22.445312 173.980469 22.050781 C 173.585938 21.65625 173.171875 21.28125 172.742188 20.925781 C 172.308594 20.570312 171.863281 20.238281 171.398438 19.929688 C 170.933594 19.617188 170.457031 19.332031 169.964844 19.066406 C 169.472656 18.804688 168.96875 18.566406 168.453125 18.351562 C 167.9375 18.136719 167.410156 17.945312 166.878906 17.785156 C 166.34375 17.621094 165.800781 17.484375 165.253906 17.375 C 164.707031 17.265625 164.15625 17.179688 163.601562 17.125 C 163.046875 17.070312 162.488281 17.039062 161.929688 17.039062 L 59.648438 17.039062 C 58.433594 17.042969 57.21875 17.097656 56.007812 17.203125 C 54.796875 17.308594 53.59375 17.46875 52.394531 17.675781 C 51.195312 17.886719 50.011719 18.148438 48.835938 18.457031 C 47.660156 18.769531 46.5 19.128906 45.355469 19.539062 C 44.210938 19.949219 43.085938 20.40625 41.980469 20.910156 C 40.875 21.417969 39.792969 21.96875 38.734375 22.566406 C 37.675781 23.164062 36.644531 23.808594 35.640625 24.492188 C 34.636719 25.179688 33.664062 25.90625 32.722656 26.675781 C 31.78125 27.445312 30.871094 28.253906 30 29.101562 C 29.128906 29.949219 28.292969 30.828125 27.496094 31.746094 C 26.699219 32.664062 25.941406 33.617188 25.226562 34.597656 C 24.507812 35.582031 23.835938 36.59375 23.207031 37.632812 C 22.578125 38.671875 21.992188 39.738281 21.453125 40.828125 C 20.914062 41.917969 20.421875 43.027344 19.980469 44.160156 C 19.535156 45.292969 19.140625 46.441406 18.792969 47.605469 C 18.449219 48.773438 18.152344 49.949219 17.90625 51.140625 Z M 17.90625 51.140625 " fill-opacity="1" fill-rule="nonzero"/></g></g></g><g mask="url(#d9cae7f291)"><g transform="matrix(1, 0, 0, 1, 129, 150)"><g clip-path="url(#30d29454c6)"><g clip-path="url(#111e2ffc5d)"><g><g clip-path="url(#dc3612d4f7)"><g fill="#000000" fill-opacity="1"><g transform="translate(0.211051, 126.595453)"><g><path d="M 10.671875 -80.53125 L 33.078125 -80.53125 C 38.722656 -80.53125 43.441406 -80.023438 47.234375 -79.015625 C 51.023438 -78.015625 54.0625 -76.46875 56.34375 -74.375 C 58.625 -72.289062 60.226562 -69.625 61.15625 -66.375 C 62.082031 -63.125 62.546875 -59.257812 62.546875 -54.78125 C 62.546875 -50.050781 61.984375 -46.023438 60.859375 -42.703125 C 59.742188 -39.378906 58.003906 -36.671875 55.640625 -34.578125 C 53.285156 -32.492188 50.226562 -30.96875 46.46875 -30 C 42.71875 -29.03125 38.253906 -28.546875 33.078125 -28.546875 L 21.125 -28.546875 L 21.125 0 L 10.671875 0 Z M 32.140625 -37.25 C 35.859375 -37.25 38.992188 -37.519531 41.546875 -38.0625 C 44.097656 -38.601562 46.128906 -39.550781 47.640625 -40.90625 C 49.148438 -42.257812 50.234375 -44.054688 50.890625 -46.296875 C 51.546875 -48.546875 51.875 -51.375 51.875 -54.78125 C 51.875 -57.875 51.546875 -60.484375 50.890625 -62.609375 C 50.234375 -64.734375 49.148438 -66.453125 47.640625 -67.765625 C 46.128906 -69.085938 44.097656 -70.035156 41.546875 -70.609375 C 38.992188 -71.191406 35.859375 -71.484375 32.140625 -71.484375 L 21.125 -71.484375 L 21.125 -37.25 Z M 32.140625 -37.25 "/></g></g></g><g fill="#000000" fill-opacity="1"><g transform="translate(69.491255, 126.595453)"><g><path d="M 33.890625 -80.53125 C 39.691406 -80.53125 44.96875 -80.007812 49.71875 -78.96875 C 54.476562 -77.925781 58.5625 -75.929688 61.96875 -72.984375 C 65.375 -70.046875 68.023438 -65.945312 69.921875 -60.6875 C 71.816406 -55.425781 72.765625 -48.617188 72.765625 -40.265625 C 72.765625 -32.453125 71.816406 -25.972656 69.921875 -20.828125 C 68.023438 -15.679688 65.375 -11.5625 61.96875 -8.46875 C 58.5625 -5.375 54.476562 -3.1875 49.71875 -1.90625 C 44.96875 -0.632812 39.691406 0 33.890625 0 L 10.671875 0 L 10.671875 -80.53125 Z M 33.65625 -9.171875 C 37.832031 -9.171875 41.660156 -9.648438 45.140625 -10.609375 C 48.617188 -11.578125 51.613281 -13.238281 54.125 -15.59375 C 56.644531 -17.957031 58.582031 -21.148438 59.9375 -25.171875 C 61.289062 -29.203125 61.96875 -34.234375 61.96875 -40.265625 C 61.96875 -46.691406 61.25 -51.929688 59.8125 -55.984375 C 58.382812 -60.046875 56.410156 -63.21875 53.890625 -65.5 C 51.378906 -67.789062 48.398438 -69.359375 44.953125 -70.203125 C 41.515625 -71.054688 37.75 -71.484375 33.65625 -71.484375 L 21.125 -71.484375 L 21.125 -9.171875 Z M 33.65625 -9.171875 "/></g></g></g><g fill="#000000" fill-opacity="1"><g transform="translate(150.608339, 126.595453)"><g><path d="M 21.125 -71.25 L 21.125 -45.140625 L 53.15625 -45.140625 L 53.15625 -35.859375 L 21.125 -35.859375 L 21.125 0 L 10.671875 0 L 10.671875 -80.53125 L 55.46875 -80.53125 L 55.46875 -71.25 Z M 21.125 -71.25 "/></g></g></g></g></g></g></g></g></g></svg>