<svg xmlns="http://www.w3.org/2000/svg" xmlns:xlink="http://www.w3.org/1999/xlink" width="500" zoomAndPan="magnify" viewBox="0 0 375 374.999991" height="500" preserveAspectRatio="xMidYMid meet" version="1.0"><defs><filter x="0%" y="0%" width="100%" height="100%" id="44648f5a5e"><feColorMatrix values="0 0 0 0 1 0 0 0 0 1 0 0 0 0 1 0 0 0 1 0" color-interpolation-filters="sRGB"/></filter><mask id="9533e73092"><g filter="url(#44648f5a5e)"><rect x="-37.5" width="450" fill="#000000" y="-37.499999" height="449.999989" fill-opacity="0.9"/></g></mask><clipPath id="9ee3f7306b"><path d="M 0 1 L 255 1 L 255 195.761719 L 0 195.761719 Z M 0 1 " clip-rule="nonzero"/></clipPath><clipPath id="aec18d263b"><rect x="0" width="256" y="0" height="196"/></clipPath></defs><g mask="url(#9533e73092)"><g transform="matrix(1, 0, 0, 1, 60, 86)"><g clip-path="url(#aec18d263b)"><g clip-path="url(#9ee3f7306b)"><path fill="#000000" d="M 244.6875 147.753906 L 244.6875 27.839844 C 244.6875 27.289062 244.660156 26.742188 244.605469 26.199219 C 244.554688 25.652344 244.472656 25.109375 244.367188 24.574219 C 244.257812 24.035156 244.125 23.503906 243.964844 22.980469 C 243.808594 22.453125 243.621094 21.9375 243.414062 21.433594 C 243.203125 20.925781 242.96875 20.429688 242.710938 19.949219 C 242.453125 19.464844 242.171875 18.996094 241.867188 18.539062 C 241.5625 18.082031 241.234375 17.644531 240.886719 17.21875 C 240.539062 16.796875 240.171875 16.390625 239.785156 16 C 239.394531 15.613281 238.992188 15.246094 238.566406 14.898438 C 238.144531 14.550781 237.703125 14.222656 237.246094 13.917969 C 236.792969 13.613281 236.320312 13.332031 235.839844 13.074219 C 235.355469 12.816406 234.859375 12.582031 234.351562 12.371094 C 233.847656 12.164062 233.332031 11.976562 232.804688 11.820312 C 232.28125 11.660156 231.75 11.527344 231.210938 11.417969 C 230.675781 11.3125 230.132812 11.234375 229.585938 11.179688 C 229.042969 11.125 228.496094 11.097656 227.945312 11.097656 L 27.054688 11.097656 C 26.503906 11.097656 25.957031 11.125 25.414062 11.179688 C 24.867188 11.234375 24.324219 11.3125 23.789062 11.417969 C 23.25 11.527344 22.71875 11.660156 22.195312 11.820312 C 21.667969 11.976562 21.152344 12.164062 20.648438 12.371094 C 20.140625 12.582031 19.644531 12.816406 19.160156 13.074219 C 18.679688 13.332031 18.207031 13.613281 17.753906 13.917969 C 17.296875 14.222656 16.855469 14.550781 16.433594 14.898438 C 16.007812 15.246094 15.605469 15.613281 15.214844 16 C 14.828125 16.390625 14.460938 16.796875 14.113281 17.21875 C 13.765625 17.644531 13.4375 18.082031 13.132812 18.539062 C 12.828125 18.996094 12.546875 19.464844 12.289062 19.949219 C 12.03125 20.429688 11.796875 20.925781 11.585938 21.433594 C 11.378906 21.9375 11.191406 22.453125 11.035156 22.980469 C 10.875 23.503906 10.742188 24.035156 10.632812 24.574219 C 10.527344 25.109375 10.445312 25.652344 10.394531 26.199219 C 10.339844 26.742188 10.3125 27.289062 10.3125 27.839844 L 10.3125 168.464844 C 10.3125 171.003906 10.875 173.40625 11.886719 175.5625 L 86.191406 71.582031 C 86.339844 71.371094 86.507812 71.179688 86.703125 71.011719 C 86.894531 70.84375 87.105469 70.695312 87.332031 70.574219 C 87.558594 70.453125 87.792969 70.359375 88.042969 70.292969 C 88.289062 70.222656 88.542969 70.1875 88.796875 70.175781 C 89.054688 70.167969 89.308594 70.1875 89.5625 70.238281 C 89.8125 70.285156 90.058594 70.363281 90.292969 70.46875 C 90.523438 70.574219 90.746094 70.707031 90.949219 70.863281 C 91.152344 71.019531 91.335938 71.195312 91.5 71.394531 L 151.554688 144.230469 L 187.816406 96.136719 C 187.960938 95.945312 188.121094 95.769531 188.304688 95.613281 C 188.484375 95.457031 188.683594 95.320312 188.894531 95.207031 C 189.105469 95.09375 189.324219 95 189.554688 94.933594 C 189.785156 94.867188 190.019531 94.824219 190.261719 94.808594 C 190.5 94.792969 190.738281 94.800781 190.976562 94.835938 C 191.210938 94.871094 191.445312 94.929688 191.667969 95.015625 C 191.894531 95.101562 192.105469 95.207031 192.308594 95.335938 C 192.507812 95.46875 192.695312 95.617188 192.863281 95.789062 Z M 244.6875 157.234375 L 190.847656 103.246094 L 155.941406 149.539062 L 168.984375 165.363281 C 169.265625 165.707031 169.472656 166.089844 169.605469 166.515625 C 169.734375 166.941406 169.777344 167.375 169.734375 167.816406 C 169.691406 168.257812 169.566406 168.675781 169.359375 169.066406 C 169.148438 169.460938 168.875 169.796875 168.53125 170.082031 C 168.1875 170.363281 167.804688 170.570312 167.378906 170.699219 C 166.953125 170.828125 166.519531 170.871094 166.078125 170.828125 C 165.636719 170.785156 165.21875 170.660156 164.828125 170.449219 C 164.433594 170.242188 164.097656 169.964844 163.816406 169.621094 L 89.109375 79.019531 L 16.125 181.140625 C 17.640625 182.453125 19.339844 183.460938 21.222656 184.160156 C 23.101562 184.859375 25.046875 185.207031 27.054688 185.207031 L 227.945312 185.207031 C 228.496094 185.207031 229.042969 185.179688 229.585938 185.125 C 230.132812 185.070312 230.675781 184.992188 231.210938 184.882812 C 231.75 184.777344 232.28125 184.644531 232.804688 184.484375 C 233.332031 184.324219 233.847656 184.140625 234.351562 183.929688 C 234.859375 183.722656 235.355469 183.488281 235.839844 183.230469 C 236.320312 182.96875 236.792969 182.6875 237.246094 182.382812 C 237.703125 182.078125 238.144531 181.753906 238.566406 181.40625 C 238.992188 181.058594 239.394531 180.691406 239.785156 180.300781 C 240.171875 179.914062 240.539062 179.507812 240.886719 179.085938 C 241.234375 178.660156 241.5625 178.222656 241.867188 177.765625 C 242.171875 177.308594 242.453125 176.839844 242.710938 176.355469 C 242.96875 175.871094 243.203125 175.378906 243.414062 174.871094 C 243.621094 174.363281 243.808594 173.847656 243.964844 173.324219 C 244.125 172.800781 244.257812 172.269531 244.367188 171.730469 C 244.472656 171.191406 244.554688 170.652344 244.605469 170.105469 C 244.660156 169.558594 244.6875 169.011719 244.6875 168.464844 Z M 27.054688 1.054688 L 227.945312 1.054688 C 228.824219 1.054688 229.699219 1.097656 230.570312 1.183594 C 231.445312 1.269531 232.3125 1.398438 233.171875 1.566406 C 234.03125 1.738281 234.882812 1.953125 235.722656 2.207031 C 236.5625 2.460938 237.386719 2.757812 238.195312 3.09375 C 239.007812 3.429688 239.800781 3.804688 240.574219 4.214844 C 241.347656 4.628906 242.097656 5.082031 242.828125 5.566406 C 243.558594 6.054688 244.261719 6.578125 244.9375 7.132812 C 245.617188 7.691406 246.265625 8.277344 246.886719 8.898438 C 247.507812 9.519531 248.09375 10.167969 248.652344 10.847656 C 249.207031 11.523438 249.730469 12.226562 250.21875 12.957031 C 250.707031 13.6875 251.15625 14.4375 251.570312 15.210938 C 251.984375 15.984375 252.359375 16.777344 252.691406 17.589844 C 253.027344 18.398438 253.324219 19.222656 253.578125 20.0625 C 253.832031 20.902344 254.046875 21.753906 254.21875 22.613281 C 254.386719 23.472656 254.515625 24.339844 254.601562 25.214844 C 254.6875 26.085938 254.730469 26.960938 254.730469 27.839844 L 254.730469 168.464844 C 254.730469 169.339844 254.6875 170.214844 254.601562 171.089844 C 254.515625 171.960938 254.386719 172.828125 254.21875 173.691406 C 254.046875 174.550781 253.832031 175.398438 253.578125 176.238281 C 253.324219 177.078125 253.027344 177.902344 252.691406 178.714844 C 252.355469 179.523438 251.984375 180.316406 251.570312 181.089844 C 251.15625 181.863281 250.707031 182.617188 250.21875 183.34375 C 249.730469 184.074219 249.207031 184.777344 248.652344 185.457031 C 248.09375 186.136719 247.507812 186.785156 246.886719 187.40625 C 246.265625 188.023438 245.617188 188.613281 244.9375 189.171875 C 244.261719 189.726562 243.558594 190.25 242.828125 190.734375 C 242.097656 191.222656 241.347656 191.671875 240.574219 192.085938 C 239.800781 192.5 239.007812 192.875 238.195312 193.210938 C 237.386719 193.546875 236.5625 193.84375 235.722656 194.097656 C 234.882812 194.351562 234.03125 194.5625 233.171875 194.734375 C 232.3125 194.90625 231.445312 195.035156 230.570312 195.121094 C 229.699219 195.207031 228.824219 195.25 227.945312 195.25 L 27.054688 195.25 C 26.175781 195.25 25.300781 195.207031 24.429688 195.121094 C 23.554688 195.035156 22.6875 194.90625 21.828125 194.734375 C 20.96875 194.5625 20.117188 194.351562 19.277344 194.097656 C 18.4375 193.84375 17.613281 193.546875 16.804688 193.210938 C 15.992188 192.875 15.199219 192.5 14.425781 192.085938 C 13.652344 191.671875 12.902344 191.222656 12.171875 190.734375 C 11.441406 190.25 10.738281 189.726562 10.0625 189.171875 C 9.382812 188.613281 8.734375 188.023438 8.113281 187.40625 C 7.492188 186.785156 6.90625 186.136719 6.347656 185.457031 C 5.792969 184.777344 5.269531 184.074219 4.78125 183.34375 C 4.292969 182.617188 3.84375 181.863281 3.429688 181.089844 C 3.015625 180.316406 2.640625 179.523438 2.308594 178.714844 C 1.972656 177.902344 1.675781 177.078125 1.421875 176.238281 C 1.167969 175.398438 0.953125 174.550781 0.78125 173.691406 C 0.613281 172.828125 0.484375 171.960938 0.398438 171.089844 C 0.3125 170.214844 0.269531 169.339844 0.269531 168.464844 L 0.269531 27.839844 C 0.269531 26.960938 0.3125 26.085938 0.398438 25.214844 C 0.484375 24.339844 0.613281 23.472656 0.78125 22.613281 C 0.953125 21.753906 1.167969 20.902344 1.421875 20.0625 C 1.675781 19.222656 1.972656 18.398438 2.308594 17.589844 C 2.640625 16.777344 3.015625 15.984375 3.429688 15.210938 C 3.84375 14.4375 4.292969 13.6875 4.78125 12.957031 C 5.269531 12.226562 5.792969 11.523438 6.347656 10.847656 C 6.90625 10.167969 7.492188 9.519531 8.113281 8.898438 C 8.734375 8.277344 9.382812 7.691406 10.0625 7.132812 C 10.738281 6.578125 11.441406 6.054688 12.171875 5.566406 C 12.902344 5.082031 13.652344 4.628906 14.425781 4.214844 C 15.199219 3.804688 15.992188 3.429688 16.804688 3.09375 C 17.613281 2.757812 18.4375 2.460938 19.277344 2.207031 C 20.117188 1.953125 20.96875 1.738281 21.828125 1.566406 C 22.6875 1.398438 23.554688 1.269531 24.429688 1.183594 C 25.300781 1.097656 26.175781 1.054688 27.054688 1.054688 Z M 181.070312 71.367188 C 180.523438 71.367188 179.976562 71.339844 179.429688 71.285156 C 178.886719 71.230469 178.34375 71.152344 177.804688 71.042969 C 177.269531 70.9375 176.738281 70.804688 176.210938 70.644531 C 175.6875 70.484375 175.171875 70.300781 174.664062 70.089844 C 174.160156 69.882812 173.664062 69.648438 173.179688 69.390625 C 172.695312 69.128906 172.226562 68.847656 171.769531 68.542969 C 171.316406 68.238281 170.875 67.914062 170.449219 67.566406 C 170.027344 67.21875 169.621094 66.851562 169.234375 66.460938 C 168.847656 66.074219 168.476562 65.667969 168.128906 65.246094 C 167.78125 64.820312 167.457031 64.382812 167.152344 63.925781 C 166.847656 63.46875 166.566406 63 166.308594 62.515625 C 166.046875 62.03125 165.816406 61.539062 165.605469 61.03125 C 165.394531 60.523438 165.210938 60.007812 165.050781 59.484375 C 164.890625 58.960938 164.757812 58.429688 164.652344 57.890625 C 164.546875 57.351562 164.464844 56.8125 164.410156 56.265625 C 164.355469 55.71875 164.332031 55.171875 164.332031 54.625 C 164.332031 54.078125 164.355469 53.53125 164.410156 52.984375 C 164.464844 52.4375 164.546875 51.898438 164.652344 51.359375 C 164.757812 50.820312 164.890625 50.289062 165.050781 49.765625 C 165.210938 49.242188 165.394531 48.726562 165.605469 48.21875 C 165.816406 47.710938 166.046875 47.21875 166.308594 46.734375 C 166.566406 46.25 166.847656 45.78125 167.152344 45.324219 C 167.457031 44.867188 167.78125 44.429688 168.128906 44.003906 C 168.476562 43.582031 168.847656 43.175781 169.234375 42.789062 C 169.621094 42.398438 170.027344 42.03125 170.449219 41.683594 C 170.875 41.335938 171.316406 41.011719 171.769531 40.707031 C 172.226562 40.402344 172.695312 40.121094 173.179688 39.859375 C 173.664062 39.601562 174.160156 39.367188 174.664062 39.160156 C 175.171875 38.949219 175.6875 38.765625 176.210938 38.605469 C 176.738281 38.445312 177.269531 38.3125 177.804688 38.207031 C 178.34375 38.097656 178.886719 38.019531 179.429688 37.964844 C 179.976562 37.910156 180.523438 37.882812 181.070312 37.882812 C 181.621094 37.882812 182.167969 37.910156 182.710938 37.964844 C 183.257812 38.019531 183.800781 38.097656 184.335938 38.207031 C 184.875 38.3125 185.40625 38.445312 185.929688 38.605469 C 186.457031 38.765625 186.972656 38.949219 187.476562 39.160156 C 187.984375 39.367188 188.480469 39.601562 188.964844 39.859375 C 189.445312 40.121094 189.917969 40.402344 190.371094 40.707031 C 190.828125 41.011719 191.269531 41.335938 191.691406 41.683594 C 192.117188 42.03125 192.519531 42.398438 192.910156 42.789062 C 193.296875 43.175781 193.664062 43.582031 194.011719 44.003906 C 194.359375 44.429688 194.6875 44.867188 194.992188 45.324219 C 195.296875 45.78125 195.578125 46.25 195.835938 46.734375 C 196.09375 47.21875 196.328125 47.710938 196.539062 48.21875 C 196.746094 48.726562 196.933594 49.242188 197.089844 49.765625 C 197.25 50.289062 197.382812 50.820312 197.492188 51.359375 C 197.597656 51.898438 197.679688 52.4375 197.730469 52.984375 C 197.785156 53.53125 197.8125 54.078125 197.8125 54.625 C 197.8125 55.171875 197.785156 55.71875 197.730469 56.265625 C 197.679688 56.8125 197.597656 57.351562 197.492188 57.890625 C 197.382812 58.429688 197.25 58.960938 197.089844 59.484375 C 196.933594 60.007812 196.746094 60.523438 196.539062 61.03125 C 196.328125 61.539062 196.09375 62.03125 195.835938 62.515625 C 195.578125 63 195.296875 63.46875 194.992188 63.925781 C 194.6875 64.382812 194.359375 64.820312 194.011719 65.246094 C 193.664062 65.667969 193.296875 66.074219 192.910156 66.460938 C 192.519531 66.851562 192.117188 67.21875 191.691406 67.566406 C 191.269531 67.914062 190.828125 68.238281 190.371094 68.542969 C 189.917969 68.847656 189.445312 69.128906 188.964844 69.390625 C 188.480469 69.648438 187.984375 69.882812 187.476562 70.089844 C 186.972656 70.300781 186.457031 70.484375 185.929688 70.644531 C 185.40625 70.804688 184.875 70.9375 184.335938 71.042969 C 183.800781 71.152344 183.257812 71.230469 182.710938 71.285156 C 182.167969 71.339844 181.621094 71.367188 181.070312 71.367188 Z M 181.070312 62.996094 C 181.621094 62.996094 182.164062 62.941406 182.703125 62.835938 C 183.242188 62.726562 183.765625 62.570312 184.273438 62.359375 C 184.78125 62.148438 185.265625 61.890625 185.722656 61.585938 C 186.179688 61.28125 186.601562 60.933594 186.992188 60.542969 C 187.378906 60.15625 187.726562 59.730469 188.03125 59.277344 C 188.335938 58.820312 188.59375 58.335938 188.804688 57.828125 C 189.015625 57.320312 189.175781 56.796875 189.28125 56.257812 C 189.386719 55.71875 189.441406 55.175781 189.441406 54.625 C 189.441406 54.074219 189.386719 53.53125 189.28125 52.992188 C 189.175781 52.453125 189.015625 51.929688 188.804688 51.421875 C 188.59375 50.914062 188.335938 50.429688 188.03125 49.972656 C 187.726562 49.515625 187.378906 49.09375 186.992188 48.707031 C 186.601562 48.316406 186.179688 47.96875 185.722656 47.664062 C 185.265625 47.359375 184.78125 47.101562 184.273438 46.890625 C 183.765625 46.679688 183.242188 46.523438 182.703125 46.414062 C 182.164062 46.308594 181.621094 46.253906 181.070312 46.253906 C 180.523438 46.253906 179.976562 46.308594 179.4375 46.414062 C 178.898438 46.523438 178.375 46.679688 177.867188 46.890625 C 177.359375 47.101562 176.878906 47.359375 176.421875 47.664062 C 175.964844 47.96875 175.542969 48.316406 175.152344 48.707031 C 174.765625 49.09375 174.417969 49.515625 174.113281 49.972656 C 173.804688 50.429688 173.546875 50.914062 173.339844 51.421875 C 173.128906 51.929688 172.96875 52.453125 172.863281 52.992188 C 172.753906 53.53125 172.699219 54.074219 172.699219 54.625 C 172.699219 55.175781 172.753906 55.71875 172.863281 56.257812 C 172.96875 56.796875 173.128906 57.320312 173.339844 57.828125 C 173.546875 58.335938 173.804688 58.820312 174.113281 59.277344 C 174.417969 59.730469 174.765625 60.15625 175.152344 60.542969 C 175.542969 60.933594 175.964844 61.28125 176.421875 61.585938 C 176.878906 61.890625 177.359375 62.148438 177.867188 62.359375 C 178.375 62.570312 178.898438 62.726562 179.4375 62.835938 C 179.976562 62.941406 180.523438 62.996094 181.070312 62.996094 Z M 181.070312 62.996094 " fill-opacity="1" fill-rule="nonzero"/></g></g></g></g></svg>