<svg xmlns="http://www.w3.org/2000/svg" xmlns:xlink="http://www.w3.org/1999/xlink" width="500" zoomAndPan="magnify" viewBox="0 0 375 374.999991" height="500" preserveAspectRatio="xMidYMid meet" version="1.0"><defs><clipPath id="2a6bb50ac9"><path d="M 51.875 167.5 L 323.148438 167.5 L 323.148438 375 L 51.875 375 Z M 51.875 167.5 " clip-rule="nonzero"/></clipPath></defs><path fill="#196f52" d="M 120.964844 108.09375 C 120.964844 89.6875 128.402344 73.042969 140.539062 61.097656 C 152.476562 48.953125 169.117188 41.515625 187.515625 41.515625 C 205.714844 41.515625 222.351562 48.953125 234.488281 61.097656 C 246.625 73.042969 254.058594 89.6875 254.058594 108.09375 L 254.058594 140.015625 L 295.554688 140.015625 L 295.554688 108.09375 C 295.554688 78.328125 283.421875 51.304688 263.84375 31.722656 C 244.273438 12.140625 217.265625 0 187.515625 0 C 157.761719 0 130.75 12.140625 111.179688 31.722656 C 91.605469 51.304688 79.472656 78.328125 79.472656 108.09375 L 79.472656 140.015625 L 120.964844 140.015625 L 120.964844 108.09375 " fill-opacity="1" fill-rule="nonzero"/><g clip-path="url(#2a6bb50ac9)"><path fill="#196f52" d="M 214.523438 309.789062 L 160.503906 309.789062 L 170.09375 252.023438 C 162.070312 246.539062 156.980469 237.335938 156.980469 226.957031 C 156.980469 210.117188 170.679688 196.410156 187.515625 196.410156 C 204.34375 196.410156 218.046875 210.117188 218.046875 226.957031 C 218.046875 237.335938 212.957031 246.539062 204.933594 252.023438 Z M 51.875 167.820312 L 51.875 239.292969 C 51.875 314.097656 112.941406 375 187.515625 375 C 262.085938 375 323.152344 314.097656 323.152344 239.292969 L 323.152344 167.820312 L 51.875 167.820312 " fill-opacity="1" fill-rule="nonzero"/></g></svg>