<svg xmlns="http://www.w3.org/2000/svg" xmlns:xlink="http://www.w3.org/1999/xlink" width="500" zoomAndPan="magnify" viewBox="0 0 375 374.999991" height="500" preserveAspectRatio="xMidYMid meet" version="1.0"><defs><clipPath id="96b9c01277"><path d="M 3 0 L 375 0 L 375 344.25 L 3 344.25 Z M 3 0 " clip-rule="nonzero"/></clipPath></defs><g clip-path="url(#96b9c01277)"><path fill="#196f52" d="M 11.679688 344.554688 C 11.375 344.554688 11.066406 344.53125 10.753906 344.480469 C 8.359375 344.09375 6.464844 342.242188 6.023438 339.855469 C 5.390625 336.457031 0.015625 305.511719 5.566406 265.929688 C 8.726562 243.410156 14.8125 222.09375 23.664062 202.566406 C 34.625 178.386719 49.890625 156.847656 69.039062 138.550781 C 111.597656 97.878906 161.105469 84.28125 196.855469 80.257812 L 196.855469 6.210938 C 196.855469 3.917969 198.21875 1.839844 200.328125 0.929688 C 202.4375 0.0195312 204.886719 0.453125 206.554688 2.027344 L 373.15625 159.257812 C 374.308594 160.34375 374.960938 161.859375 374.960938 163.441406 C 374.960938 165.027344 374.308594 166.539062 373.15625 167.625 L 206.554688 324.863281 C 204.886719 326.4375 202.4375 326.871094 200.328125 325.960938 C 198.21875 325.050781 196.855469 322.976562 196.855469 320.679688 L 196.855469 232.84375 C 164.339844 233.5 133.46875 241.21875 105.003906 255.816406 C 55.445312 281.230469 28.414062 320.464844 16.710938 341.589844 C 15.6875 343.441406 13.746094 344.554688 11.679688 344.554688 Z M 208.359375 19.550781 L 208.359375 85.457031 C 208.359375 88.429688 206.089844 90.914062 203.125 91.183594 C 168.917969 94.289062 119.265625 106.46875 76.988281 146.871094 C 43.957031 178.425781 23.761719 219.023438 16.960938 267.527344 C 13.851562 289.699219 14.316406 308.929688 15.347656 321.683594 C 30.515625 298.734375 57.292969 267.355469 99.753906 245.578125 C 131.175781 229.460938 165.367188 221.292969 201.386719 221.292969 C 201.804688 221.292969 202.21875 221.296875 202.636719 221.296875 C 205.800781 221.3125 208.359375 223.886719 208.359375 227.050781 L 208.359375 307.339844 L 360.824219 163.441406 Z M 208.359375 19.550781 " fill-opacity="1" fill-rule="nonzero"/></g></svg>