<svg xmlns="http://www.w3.org/2000/svg" xmlns:xlink="http://www.w3.org/1999/xlink" width="500" zoomAndPan="magnify" viewBox="0 0 375 374.999991" height="500" preserveAspectRatio="xMidYMid meet" version="1.0"><defs><filter x="0%" y="0%" width="100%" height="100%" id="48a3c49a39"><feColorMatrix values="0 0 0 0 1 0 0 0 0 1 0 0 0 0 1 0 0 0 1 0" color-interpolation-filters="sRGB"/></filter><mask id="b45daf5811"><g filter="url(#48a3c49a39)"><rect x="-37.5" width="450" fill="#000000" y="-37.499999" height="449.999989" fill-opacity="0.7"/></g></mask><clipPath id="b3748d2404"><rect x="0" width="375" y="0" height="375"/></clipPath></defs><g mask="url(#b45daf5811)"><g transform="matrix(1, 0, 0, 1, 0, 0)"><g clip-path="url(#b3748d2404)"><path fill="#000000" d="M 302.34375 56.25 L 72.65625 56.25 C 45.59375 56.25 23.4375 78.40625 23.4375 105.46875 L 23.4375 269.53125 C 23.4375 296.59375 45.59375 318.75 72.65625 318.75 L 302.34375 318.75 C 329.40625 318.75 351.5625 296.59375 351.5625 269.53125 L 351.5625 105.46875 C 351.5625 78.40625 329.40625 56.25 302.34375 56.25 Z M 251.734375 72.65625 L 292.75 113.671875 L 258.542969 113.671875 L 217.527344 72.65625 Z M 194.3125 72.65625 L 235.328125 113.671875 L 192.882812 113.671875 L 151.867188 72.65625 Z M 128.6875 72.65625 L 169.703125 113.671875 L 127.257812 113.671875 L 86.242188 72.65625 Z M 39.84375 105.46875 C 39.84375 90.308594 50.246094 77.601562 64.269531 73.863281 L 104.078125 113.671875 L 39.84375 113.671875 Z M 335.15625 269.53125 C 335.15625 287.621094 320.433594 302.34375 302.34375 302.34375 L 72.65625 302.34375 C 54.566406 302.34375 39.84375 287.621094 39.84375 269.53125 L 39.84375 130.078125 L 335.15625 130.078125 Z M 335.15625 113.671875 L 315.929688 113.671875 L 274.914062 72.65625 L 302.34375 72.65625 C 320.433594 72.65625 335.15625 87.378906 335.15625 105.46875 Z M 335.15625 113.671875 " fill-opacity="1" fill-rule="nonzero"/><path fill="#000000" d="M 166.257812 251.660156 L 220.933594 223.242188 C 231.003906 218.1875 231.003906 203.832031 220.933594 198.78125 L 171.386719 172.925781 C 159.960938 167.210938 146.484375 175.523438 146.484375 188.304688 L 146.484375 239.429688 C 146.484375 249.609375 157.175781 256.199219 166.257812 251.660156 Z M 162.890625 187.5 L 212.109375 212.109375 L 162.890625 236.71875 Z M 162.890625 187.5 " fill-opacity="1" fill-rule="nonzero"/></g></g></g></svg>